<?xml version="1.0" encoding="UTF-8" standalone="no"?>
<svg
   id="a"
   width="25mm"
   height="25mm"
   viewBox="0 0 70.86614 70.86614"
   version="1.1"
   xmlns="http://www.w3.org/2000/svg"
   xmlns:svg="http://www.w3.org/2000/svg">
  <defs
     id="defs12" />
  <path
     d="M35.54382,70.86436C16.12645,71.05759,.19362,55.51538,0,36.1085v-.7451C0,15.84571,15.87705,0,35.43334,0s35.4328,15.84571,35.4328,35.3634v35.50096H35.54382Z"
     fill="#00ff55"
     id="path1" />
  <g
     id="g6">
    <path
       d="M29.85186,45.36217c.12988,.12988,.29883,.19482,.50879,.19482,.11914,0,.2334-.01123,.34082-.03369,.10645-.02246,.20996-.05615,.30957-.10107,.29004-.12451,.54004-.146,.75195-.06348,.21289,.08203,.36621,.26807,.46094,.55713l.17969,.53857c.01953,.06006,.01953,.11865,0,.17627-.02051,.05713-.05566,.10352-.10547,.13818-.34863,.21973-.71191,.38672-1.08789,.50146-.37695,.11475-.75977,.17188-1.14941,.17188-.48828,0-.91113-.10449-1.26758-.31396s-.63086-.51123-.82324-.90576c-.19238-.39355-.28809-.87012-.28809-1.42871v-2.79834c0-.15479-.0498-.28174-.14941-.38184-.09961-.09961-.22754-.14941-.38184-.14941h-.48633c-.08008,0-.14746-.02734-.20215-.08252-.05469-.05469-.08203-.12207-.08203-.20215v-.94238c0-.13477,.03125-.25098,.09375-.34814,.06152-.09717,.14062-.16943,.23535-.2168s.19434-.07129,.29883-.07129h.2627c.12402,0,.22754-.03955,.31055-.11963,.08203-.07959,.12305-.18213,.12305-.30664l.05957-1.3916c.01562-.22949,.08301-.41943,.20215-.56885,.12012-.14941,.2998-.22461,.53906-.22461h.86035c.08008,0,.14844,.02881,.20605,.08643,.05664,.05713,.08594,.12842,.08594,.21289v1.78076c0,.15479,.0498,.28174,.14941,.38184,.09961,.09961,.22656,.14941,.38184,.14941h1.54102c.08496,0,.1543,.02734,.20996,.08252,.05469,.05469,.08203,.12451,.08203,.20947v1.2793c0,.08496-.02734,.15479-.08203,.20947-.05566,.05518-.125,.08252-.20996,.08252h-1.54102c-.15527,0-.28223,.0498-.38184,.14941-.09961,.1001-.14941,.22705-.14941,.38184v2.73828c0,.28955,.06445,.49902,.19434,.62842Z"
       fill="#fff"
       id="path2" />
    <path
       d="M39.45537,47.23278c-.04297-.04492-.06348-.09961-.06348-.16455v-4.07031c0-.38916-.0498-.70215-.15039-.93896-.09961-.23682-.24121-.41016-.42578-.52002s-.41211-.16455-.68066-.16455c-.19531,0-.38965,.03223-.58398,.09717s-.38965,.15479-.58398,.26953c-.19434,.12451-.33496,.27539-.42285,.45264-.08691,.17676-.13086,.4126-.13086,.70703v4.16748c0,.06494-.02246,.11963-.06738,.16455s-.09961,.06738-.16406,.06738h-1.50391c-.07031,0-.12695-.02246-.17188-.06738s-.06738-.09961-.06738-.16455v-10.66211c0-.06494,.02246-.11816,.06738-.16064s.10156-.06396,.17188-.06396h1.50391c.06445,0,.11914,.02148,.16406,.06396s.06738,.0957,.06738,.16064v3.33691c0,.08496,.02539,.15625,.0752,.21338,.0498,.05762,.1123,.08887,.18652,.09375,.0752,.00488,.15527-.01758,.24023-.06738,.26855-.16455,.5498-.29199,.8418-.38184,.29102-.08984,.59961-.13477,.92383-.13477,.57812,0,1.06836,.13477,1.46973,.4043,.40137,.26904,.70508,.65479,.90918,1.15576,.20508,.50146,.30664,1.09619,.30664,1.78467v4.25732c0,.06494-.02246,.11963-.06738,.16455s-.09961,.06738-.16406,.06738h-1.51855c-.06543,0-.11914-.02246-.16113-.06738Z"
       fill="#fff"
       id="path3" />
    <path
       d="M43.80889,36.77672c.1123-.19238,.26562-.34424,.45996-.45654,.19531-.1123,.4043-.16846,.62891-.16846s.43262,.05615,.625,.16846c.19141,.1123,.34375,.26416,.45605,.45654,.1123,.19189,.16797,.40283,.16797,.63184,0,.21973-.05566,.42676-.16797,.62109-.1123,.19482-.26465,.34912-.45605,.46387-.19238,.11475-.40039,.17236-.625,.17236s-.43359-.05762-.62891-.17236c-.19434-.11475-.34766-.26807-.45996-.45996s-.16797-.40039-.16797-.625c0-.229,.05566-.43994,.16797-.63184Zm2.00195,2.89893c.0498,.05029,.07422,.1123,.07422,.1875v7.18262c0,.06982-.02441,.12988-.07422,.17969s-.1123,.07471-.1875,.07471h-1.44434c-.0791,0-.14453-.0249-.19434-.07471s-.07422-.10986-.07422-.17969v-7.18262c0-.0752,.02441-.13721,.07422-.1875,.0498-.0498,.11523-.07471,.19434-.07471h1.44434c.0752,0,.1377,.0249,.1875,.07471Z"
       fill="#fff"
       id="path4" />
    <path
       d="M53.47979,47.22545c-.0498-.0498-.07422-.10986-.07422-.17969v-4.27246c0-.33398-.05176-.60449-.15332-.81152-.10254-.20703-.24121-.35547-.41602-.44531-.17383-.08984-.37598-.13477-.60547-.13477-.21484,0-.44043,.04004-.67773,.11963-.23633,.08008-.46973,.19727-.69922,.35205-.1543,.09473-.26465,.21582-.3291,.36279-.06543,.14697-.09766,.31543-.09766,.50488v4.32471c0,.06982-.02441,.12988-.07422,.17969s-.1123,.07471-.1875,.07471h-1.44434c-.0791,0-.14453-.0249-.19434-.07471s-.07422-.10986-.07422-.17969v-7.18262c0-.0752,.02441-.13721,.07422-.1875,.0498-.0498,.1123-.07471,.1875-.07471h.90527c.17969,0,.32617,.02881,.44141,.08594,.11426,.05762,.19922,.15137,.25391,.28076l.01562,.02979c.03418,.0752,.07422,.12842,.11914,.16113,.04492,.03223,.09961,.04248,.16504,.02979,.06445-.01221,.13965-.04883,.22461-.1084,.27441-.19482,.58105-.34521,.91992-.45264s.68359-.16113,1.03223-.16113c.48926,0,.92773,.11133,1.31738,.33301,.38867,.22217,.69824,.56738,.92773,1.03662,.22949,.46875,.34375,1.05713,.34375,1.76562v4.44434c0,.06982-.02539,.12988-.07812,.17969s-.11328,.07471-.18359,.07471h-1.45898c-.06934,0-.12988-.0249-.17969-.07471Z"
       fill="#fff"
       id="path5" />
    <path
       d="M57.8792,47.22545c-.0498-.0498-.07422-.10986-.07422-.17969v-10.60986c0-.06982,.02441-.12939,.07422-.1792s.11523-.0752,.19434-.0752h1.44434c.0752,0,.1377,.02539,.1875,.0752s.07422,.10938,.07422,.1792v10.60986c0,.06982-.02441,.12988-.07422,.17969s-.1123,.07471-.1875,.07471h-1.44434c-.0791,0-.14453-.0249-.19434-.07471Zm2.29688-3.89062c0-.06982,.01758-.13477,.05273-.19482l1.95312-2.97803c.12402-.21436,.26172-.36133,.41113-.44141,.14941-.07959,.35156-.11963,.60645-.11963h1.3916c.07422,0,.12988,.03125,.16406,.09375,.03516,.0625,.03027,.12842-.01465,.19824l-2.08789,2.94043c-.09961,.15479-.14941,.31934-.14941,.49365,0,.1748,.0498,.33936,.14941,.49414l2.26758,3.18701c.04492,.07031,.05078,.13623,.01855,.19824-.03223,.0625-.09082,.09375-.17578,.09375h-1.21973c-.20898,0-.38477-.01855-.52734-.05615s-.2666-.09863-.37402-.18311c-.10742-.08496-.20605-.19971-.2959-.34424l-2.10938-3.18018c-.04004-.06445-.06055-.13184-.06055-.20166Z"
       fill="#fff"
       id="path6" />
  </g>
  <g
     id="g12">
    <path
       d="M25.46807,62.22887c-.04492-.04492-.06738-.09961-.06738-.16455v-4.07764c0-.39893-.05078-.7207-.15332-.96533-.10156-.24414-.24805-.42139-.4375-.53125s-.42383-.16455-.70312-.16455c-.19434,0-.3916,.03223-.59082,.09717-.2002,.06494-.39941,.15723-.59863,.27686-.2002,.12988-.3457,.28418-.43848,.46387-.0918,.17969-.1377,.41895-.1377,.71826v4.18262c0,.06494-.02148,.11963-.06348,.16455-.04297,.04492-.09668,.06738-.16113,.06738h-1.45215c-.06445,0-.11914-.02246-.16406-.06738s-.06738-.09961-.06738-.16455v-10.64697c0-.06982,.02246-.12744,.06738-.17236s.09961-.06738,.16406-.06738h1.45215c.06445,0,.11816,.02246,.16113,.06738,.04199,.04492,.06348,.10254,.06348,.17236v3.32959c0,.08984,.02441,.16211,.07422,.2168,.0498,.05518,.11328,.08496,.19141,.08984,.07715,.00488,.15527-.01514,.23535-.06006,.26953-.16943,.55273-.29932,.84961-.38867,.2959-.08984,.60938-.13477,.93848-.13477,.57324,0,1.0625,.1333,1.4668,.3999,.4043,.26709,.70703,.6499,.90918,1.14893,.20215,.49854,.30273,1.09473,.30273,1.78809v4.25732c0,.06494-.02148,.11963-.06348,.16455-.04297,.04492-.09863,.06738-.16797,.06738h-1.45215c-.05957,0-.1123-.02246-.15723-.06738Z"
       fill="#fff"
       id="path7" />
    <path
       d="M28.54717,54.69078c.03711-.05762,.0957-.08594,.17578-.08594h1.00977c.2793,0,.50781,.06104,.68457,.18311,.17773,.12207,.31055,.31543,.40039,.57959l1.44434,3.87598c.03516,.08496,.08887,.14355,.16113,.17578,.07227,.03271,.14453,.03271,.2168,0,.07227-.03223,.12598-.09082,.16113-.17578l1.44336-3.87598c.08984-.26416,.22266-.45752,.39746-.57959,.17383-.12207,.40137-.18311,.68066-.18311h1.00977c.08008,0,.13867,.02832,.17578,.08594,.03711,.05713,.04102,.12354,.01172,.19824l-3.89844,9.3374c-.10449,.25928-.25293,.45166-.44531,.57617-.19238,.125-.4375,.18701-.7373,.18701h-.83789c-.08008,0-.13867-.02979-.17578-.08936-.03711-.06006-.04102-.12744-.01074-.20215l.77051-1.72119c.11914-.2793,.18164-.56348,.18652-.85254,.00488-.28955-.0498-.57129-.16406-.8457l-2.6709-6.38965c-.03027-.07471-.02637-.14111,.01074-.19824Z"
       fill="#fff"
       id="path8" />
    <path
       d="M38.09112,51.25279c.0498-.0498,.10938-.0752,.17871-.0752h1.39941c.0752,0,.13574,.02539,.18359,.0752,.04688,.0498,.07129,.11182,.07129,.18701v3.35938c0,.08984,.02441,.16211,.07422,.2168,.0498,.05518,.11328,.0835,.19141,.08643,.07715,.00244,.15332-.02148,.22754-.07129,.16016-.10986,.3291-.20312,.50879-.28076,.17969-.07715,.37109-.13574,.57227-.17578,.20215-.03955,.41309-.05957,.63281-.05957,.65332,0,1.23535,.16797,1.74707,.50488,.51074,.33691,.90918,.80664,1.19336,1.41016,.28418,.604,.42676,1.28711,.42676,2.05029s-.15137,1.44531-.45312,2.04639-.71484,1.07129-1.23828,1.41016c-.52344,.33936-1.10742,.50879-1.75098,.50879-.34863,0-.66406-.05225-.94629-.15674-.28223-.10498-.54492-.24951-.78906-.43408-.11035-.08496-.20996-.12207-.2998-.1123-.08984,.01025-.16211,.06494-.2168,.16455l-.00781,.02979c-.05957,.10986-.1416,.19727-.24609,.26221-.10547,.06494-.22754,.09717-.36719,.09717h-.90527c-.06934,0-.13086-.0249-.18359-.07471-.05176-.0498-.07812-.10986-.07812-.17969v-10.60205c0-.0752,.02441-.13721,.0752-.18701Zm1.90723,8.49561c.0498,.12744,.13477,.23584,.25488,.32568,.17969,.13965,.38867,.2583,.62793,.35547,.24023,.09717,.48926,.146,.74902,.146,.37402,0,.70898-.0874,1.00586-.26221,.29688-.17432,.53027-.42139,.69922-.74072,.16992-.31885,.25488-.68066,.25488-1.08496,0-.39893-.08398-.75439-.25098-1.06592-.16699-.31201-.39551-.55518-.68457-.72949-.28906-.1748-.61816-.26221-.9873-.26221-.2793,0-.53613,.05371-.77051,.16113s-.44922,.25293-.64355,.4375c-.11035,.10986-.19238,.2373-.24707,.38184s-.08203,.30176-.08203,.47119v1.4292c0,.16455,.02441,.31055,.07422,.4375Z"
       fill="#fff"
       id="path9" />
    <path
       d="M49.24248,57.39928c-.04785,.15723-.07129,.33301-.07129,.52734v4.11523c0,.06494-.02344,.12354-.07129,.17578-.04688,.05225-.1084,.07861-.18262,.07861h-1.39258c-.06934,0-.12891-.02637-.17871-.07861-.05078-.05225-.0752-.11084-.0752-.17578v-7.18262c0-.06494,.02637-.12354,.07812-.17627,.05273-.05225,.11426-.07812,.18359-.07812h.80859c.15918,0,.29297,.02734,.39941,.08203,.10742,.05518,.19824,.13477,.27344,.23926l.00781,.03027c.05469,.08984,.1123,.15576,.17188,.19824s.12207,.05713,.1875,.04492c.06445-.0127,.13184-.05127,.20117-.11621,.22461-.19434,.46875-.34521,.7334-.45264,.26465-.10693,.54688-.16064,.8457-.16064,.22949,0,.43848,.01758,.62891,.05225,.18945,.03516,.37109,.08496,.5459,.14941,.05957,.02539,.10059,.0625,.12305,.1123,.02246,.05029,.0293,.10742,.01855,.17236l-.13379,.64355c-.03516,.1792-.10547,.33008-.20996,.45264-.10449,.12207-.23047,.21045-.37793,.26562-.14746,.05469-.30566,.06982-.47461,.04492-.05566-.00537-.1123-.0127-.17285-.02246-.05957-.01025-.11328-.01367-.16016-.01123-.04785,.00244-.1084,.00098-.18359-.00391-.25,0-.48438,.05713-.70312,.17188-.21973,.11475-.41699,.27441-.5918,.479-.10449,.125-.18066,.26562-.22754,.42285Z"
       fill="#fff"
       id="path10" />
    <path
       d="M53.70537,51.80992c.11035-.18701,.25879-.33643,.44531-.44873,.1875-.1123,.39062-.16846,.61035-.16846,.22363,0,.42969,.05615,.61719,.16846,.18652,.1123,.33398,.26172,.44141,.44873s.16016,.39062,.16016,.60986c0,.21973-.05273,.42383-.16016,.61377-.10742,.18945-.25488,.33887-.44141,.44873-.1875,.10986-.39355,.16455-.61719,.16455-.21973,0-.42285-.05469-.61035-.16455-.18652-.10986-.33496-.25928-.44531-.44873-.10938-.18994-.16406-.39404-.16406-.61377,0-.21924,.05469-.42285,.16406-.60986Zm1.93457,2.86963c.04688,.0498,.07129,.10986,.07129,.17969v7.18262c0,.06982-.02441,.12988-.07129,.17969-.04785,.0498-.1084,.07471-.18359,.07471h-1.39941c-.07422,0-.13574-.0249-.18262-.07471-.04785-.0498-.07129-.10986-.07129-.17969v-7.18262c0-.06982,.02344-.12988,.07129-.17969,.04688-.0498,.1084-.07471,.18262-.07471h1.39941c.0752,0,.13574,.0249,.18359,.07471Z"
       fill="#fff"
       id="path11" />
    <path
       d="M64.86162,51.25279c.0498,.0498,.07422,.11182,.07422,.18701v10.60205c0,.06982-.02441,.12988-.07422,.17969s-.11035,.07471-.17969,.07471h-.91309c-.1543,0-.28027-.03125-.37793-.09375-.09668-.06201-.18066-.15039-.25-.26562v-.02197c-.04492-.0752-.0918-.12988-.13867-.16504-.04785-.03467-.09863-.0459-.15332-.03369-.05566,.0127-.11523,.04639-.17969,.10107-.25,.19482-.5293,.34814-.83789,.46045-.30957,.1123-.64355,.16797-1.00293,.16797-.6582,0-1.24316-.17041-1.75488-.51221-.51074-.3418-.9082-.81201-1.19336-1.41064-.28418-.59863-.42578-1.2793-.42578-2.04248s.1543-1.44775,.46387-2.05371c.30859-.60596,.74121-1.07861,1.29785-1.41797,.55566-.33936,1.18555-.50879,1.88965-.50879,.25879,0,.50879,.03613,.74805,.1084s.46582,.17334,.68066,.30322c.11426,.06982,.22559,.08105,.33301,.03369s.16113-.14111,.16113-.28076v-3.22461c0-.0752,.02344-.13721,.07031-.18701,.04785-.0498,.10938-.0752,.18359-.0752h1.3916c.0752,0,.1377,.02539,.1875,.0752Zm-5.25293,8.27881c.16504,.31201,.39258,.55518,.68457,.72949,.29199,.1748,.62012,.26172,.98438,.26172,.2793,0,.53223-.0498,.75879-.14941,.22754-.09961,.43555-.23438,.625-.4043,.12988-.10938,.22363-.23682,.28125-.38135,.05664-.14453,.08594-.31445,.08594-.50879v-1.42188c0-.16943-.02539-.32031-.0752-.45264-.0498-.13184-.13477-.24561-.25391-.34033-.1748-.14453-.38184-.26416-.62109-.35889-.24023-.09473-.48926-.14209-.74902-.14209-.37891,0-.71777,.08936-1.01758,.26904-.29883,.17969-.53223,.43018-.69922,.75195s-.25098,.68457-.25098,1.08887c0,.39404,.08301,.74707,.24707,1.05859Z"
       fill="#fff"
       id="path12" />
  </g>
</svg>
