<?xml version="1.0" encoding="UTF-8" standalone="no"?>
<!-- Created with Inkscape (http://www.inkscape.org/) -->

<svg
   width="20mm"
   height="20mm"
   viewBox="0 0 20 20"
   version="1.1"
   id="svg1"
   xmlns="http://www.w3.org/2000/svg"
   xmlns:svg="http://www.w3.org/2000/svg">
  <defs
     id="defs1">
    <clipPath
       clipPathUnits="userSpaceOnUse"
       id="clipPath63">
      <path
         d="m 395.813,147.557 h 151.274 v 103.64 H 395.813 Z"
         transform="translate(-420.79591,-250.09441)"
         id="path63" />
    </clipPath>
    <clipPath
       clipPathUnits="userSpaceOnUse"
       id="clipPath65">
      <path
         d="m 395.813,147.557 h 151.274 v 103.64 H 395.813 Z"
         transform="translate(-420.79591,-245.19331)"
         id="path65" />
    </clipPath>
    <clipPath
       clipPathUnits="userSpaceOnUse"
       id="clipPath67">
      <path
         d="m 395.813,147.557 h 151.274 v 103.64 H 395.813 Z"
         transform="translate(-420.79591,-147.6556)"
         id="path67" />
    </clipPath>
    <clipPath
       clipPathUnits="userSpaceOnUse"
       id="clipPath69">
      <path
         d="m 395.813,147.557 h 151.274 v 103.64 H 395.813 Z"
         transform="translate(-445.86911,-250.09441)"
         id="path69" />
    </clipPath>
    <clipPath
       clipPathUnits="userSpaceOnUse"
       id="clipPath71">
      <path
         d="m 395.813,147.557 h 151.274 v 103.64 H 395.813 Z"
         transform="translate(-445.86911,-245.19331)"
         id="path71" />
    </clipPath>
    <clipPath
       clipPathUnits="userSpaceOnUse"
       id="clipPath73">
      <path
         d="m 395.813,147.557 h 151.274 v 103.64 H 395.813 Z"
         transform="translate(-445.86911,-147.6556)"
         id="path73" />
    </clipPath>
    <clipPath
       clipPathUnits="userSpaceOnUse"
       id="clipPath75">
      <path
         d="m 395.813,147.557 h 151.274 v 103.64 H 395.813 Z"
         transform="translate(-470.94221,-250.09441)"
         id="path75" />
    </clipPath>
    <clipPath
       clipPathUnits="userSpaceOnUse"
       id="clipPath77">
      <path
         d="m 395.813,147.557 h 151.274 v 103.64 H 395.813 Z"
         transform="translate(-470.94221,-245.19331)"
         id="path77" />
    </clipPath>
    <clipPath
       clipPathUnits="userSpaceOnUse"
       id="clipPath79">
      <path
         d="m 395.813,147.557 h 151.274 v 103.64 H 395.813 Z"
         transform="translate(-470.94221,-147.6556)"
         id="path79" />
    </clipPath>
    <clipPath
       clipPathUnits="userSpaceOnUse"
       id="clipPath81">
      <path
         d="m 395.813,147.557 h 151.274 v 103.64 H 395.813 Z"
         transform="translate(-496.01531,-250.09441)"
         id="path81" />
    </clipPath>
    <clipPath
       clipPathUnits="userSpaceOnUse"
       id="clipPath83">
      <path
         d="m 395.813,147.557 h 151.274 v 103.64 H 395.813 Z"
         transform="translate(-496.01531,-245.19331)"
         id="path83" />
    </clipPath>
    <clipPath
       clipPathUnits="userSpaceOnUse"
       id="clipPath85">
      <path
         d="m 395.813,147.557 h 151.274 v 103.64 H 395.813 Z"
         transform="translate(-496.01531,-147.6556)"
         id="path85" />
    </clipPath>
    <clipPath
       clipPathUnits="userSpaceOnUse"
       id="clipPath87">
      <path
         d="m 395.813,147.557 h 151.274 v 103.64 H 395.813 Z"
         transform="translate(-521.08942,-250.09441)"
         id="path87" />
    </clipPath>
    <clipPath
       clipPathUnits="userSpaceOnUse"
       id="clipPath89">
      <path
         d="m 395.813,147.557 h 151.274 v 103.64 H 395.813 Z"
         transform="translate(-521.08942,-245.19331)"
         id="path89" />
    </clipPath>
    <clipPath
       clipPathUnits="userSpaceOnUse"
       id="clipPath91">
      <path
         d="m 395.813,147.557 h 151.274 v 103.64 H 395.813 Z"
         transform="translate(-521.08942,-147.6556)"
         id="path91" />
    </clipPath>
    <clipPath
       clipPathUnits="userSpaceOnUse"
       id="clipPath93">
      <path
         d="m 395.813,147.557 h 151.274 v 103.64 H 395.813 Z"
         transform="translate(-545.18902,-224.86021)"
         id="path93" />
    </clipPath>
    <clipPath
       clipPathUnits="userSpaceOnUse"
       id="clipPath95">
      <path
         d="m 395.813,147.557 h 151.274 v 103.64 H 395.813 Z"
         transform="translate(-401.20501,-224.86021)"
         id="path95" />
    </clipPath>
    <clipPath
       clipPathUnits="userSpaceOnUse"
       id="clipPath97">
      <path
         d="m 395.813,147.557 h 151.274 v 103.64 H 395.813 Z"
         transform="translate(-396.22281,-224.86021)"
         id="path97" />
    </clipPath>
    <clipPath
       clipPathUnits="userSpaceOnUse"
       id="clipPath99">
      <path
         d="m 395.813,147.557 h 151.274 v 103.64 H 395.813 Z"
         transform="translate(-545.51321,-199.125)"
         id="path99" />
    </clipPath>
    <clipPath
       clipPathUnits="userSpaceOnUse"
       id="clipPath101">
      <path
         d="m 395.813,147.557 h 151.274 v 103.64 H 395.813 Z"
         transform="translate(-401.21581,-199.125)"
         id="path101" />
    </clipPath>
    <clipPath
       clipPathUnits="userSpaceOnUse"
       id="clipPath103">
      <path
         d="m 395.813,147.557 h 151.274 v 103.64 H 395.813 Z"
         transform="translate(-396.22281,-199.125)"
         id="path103" />
    </clipPath>
    <clipPath
       clipPathUnits="userSpaceOnUse"
       id="clipPath105">
      <path
         d="m 395.813,147.557 h 151.274 v 103.64 H 395.813 Z"
         transform="translate(-545.83841,-173.3907)"
         id="path105" />
    </clipPath>
    <clipPath
       clipPathUnits="userSpaceOnUse"
       id="clipPath107">
      <path
         d="m 395.813,147.557 h 151.274 v 103.64 H 395.813 Z"
         transform="translate(-401.22651,-173.3907)"
         id="path107" />
    </clipPath>
    <clipPath
       clipPathUnits="userSpaceOnUse"
       id="clipPath109">
      <path
         d="m 395.813,147.557 h 151.274 v 103.64 H 395.813 Z"
         transform="translate(-396.22281,-173.3907)"
         id="path109" />
    </clipPath>
    <clipPath
       clipPathUnits="userSpaceOnUse"
       id="clipPath111">
      <path
         d="m 395.813,147.557 h 151.274 v 103.64 H 395.813 Z"
         transform="translate(-546.73661,-147.9066)"
         id="path111" />
    </clipPath>
    <clipPath
       clipPathUnits="userSpaceOnUse"
       id="clipPath113">
      <path
         d="m 395.813,147.557 h 151.274 v 103.64 H 395.813 Z"
         transform="translate(-486.25031,-174.0928)"
         id="path113" />
    </clipPath>
    <clipPath
       clipPathUnits="userSpaceOnUse"
       id="clipPath3">
      <path
         d="M 395.299,36.85 H 547.087 V 140.494 H 395.299 Z"
         transform="matrix(0.9966115,0,0,-1,-419.60715,139.39296)"
         id="path3" />
    </clipPath>
    <clipPath
       clipPathUnits="userSpaceOnUse"
       id="clipPath5">
      <path
         d="M 395.299,36.85 H 547.087 V 140.494 H 395.299 Z"
         transform="matrix(0.9966115,0,0,-1,-419.60715,134.49177)"
         id="path5" />
    </clipPath>
    <clipPath
       clipPathUnits="userSpaceOnUse"
       id="clipPath7">
      <path
         d="M 395.299,36.85 H 547.087 V 140.494 H 395.299 Z"
         transform="matrix(0.9966115,0,0,-1,-419.60715,36.949666)"
         id="path7" />
    </clipPath>
    <clipPath
       clipPathUnits="userSpaceOnUse"
       id="clipPath9">
      <path
         d="M 395.299,36.85 H 547.087 V 140.494 H 395.299 Z"
         transform="matrix(0.9966115,0,0,-1,-444.68135,139.39296)"
         id="path9" />
    </clipPath>
    <clipPath
       clipPathUnits="userSpaceOnUse"
       id="clipPath11">
      <path
         d="M 395.299,36.85 H 547.087 V 140.494 H 395.299 Z"
         transform="matrix(0.9966115,0,0,-1,-444.68135,134.49177)"
         id="path11" />
    </clipPath>
    <clipPath
       clipPathUnits="userSpaceOnUse"
       id="clipPath13">
      <path
         d="M 395.299,36.85 H 547.087 V 140.494 H 395.299 Z"
         transform="matrix(0.9966115,0,0,-1,-444.68135,36.949666)"
         id="path13" />
    </clipPath>
    <clipPath
       clipPathUnits="userSpaceOnUse"
       id="clipPath15">
      <path
         d="M 395.299,36.85 H 547.087 V 140.494 H 395.299 Z"
         transform="matrix(0.9966115,0,0,-1,-469.75555,139.39296)"
         id="path15" />
    </clipPath>
    <clipPath
       clipPathUnits="userSpaceOnUse"
       id="clipPath17">
      <path
         d="M 395.299,36.85 H 547.087 V 140.494 H 395.299 Z"
         transform="matrix(0.9966115,0,0,-1,-469.75555,134.49177)"
         id="path17" />
    </clipPath>
    <clipPath
       clipPathUnits="userSpaceOnUse"
       id="clipPath19">
      <path
         d="M 395.299,36.85 H 547.087 V 140.494 H 395.299 Z"
         transform="matrix(0.9966115,0,0,-1,-469.75555,36.949666)"
         id="path19" />
    </clipPath>
    <clipPath
       clipPathUnits="userSpaceOnUse"
       id="clipPath21">
      <path
         d="M 395.299,36.85 H 547.087 V 140.494 H 395.299 Z"
         transform="matrix(0.9966115,0,0,-1,-494.82985,139.39296)"
         id="path21" />
    </clipPath>
    <clipPath
       clipPathUnits="userSpaceOnUse"
       id="clipPath23">
      <path
         d="M 395.299,36.85 H 547.087 V 140.494 H 395.299 Z"
         transform="matrix(0.9966115,0,0,-1,-494.82985,134.49177)"
         id="path23" />
    </clipPath>
    <clipPath
       clipPathUnits="userSpaceOnUse"
       id="clipPath25">
      <path
         d="M 395.299,36.85 H 547.087 V 140.494 H 395.299 Z"
         transform="matrix(0.9966115,0,0,-1,-494.82985,36.949666)"
         id="path25" />
    </clipPath>
    <clipPath
       clipPathUnits="userSpaceOnUse"
       id="clipPath27">
      <path
         d="M 395.299,36.85 H 547.087 V 140.494 H 395.299 Z"
         transform="matrix(0.9966115,0,0,-1,-519.90495,139.39296)"
         id="path27" />
    </clipPath>
    <clipPath
       clipPathUnits="userSpaceOnUse"
       id="clipPath29">
      <path
         d="M 395.299,36.85 H 547.087 V 140.494 H 395.299 Z"
         transform="matrix(0.9966115,0,0,-1,-519.90495,134.49177)"
         id="path29" />
    </clipPath>
    <clipPath
       clipPathUnits="userSpaceOnUse"
       id="clipPath31">
      <path
         d="M 395.299,36.85 H 547.087 V 140.494 H 395.299 Z"
         transform="matrix(0.9966115,0,0,-1,-519.90495,36.949666)"
         id="path31" />
    </clipPath>
    <clipPath
       clipPathUnits="userSpaceOnUse"
       id="clipPath33">
      <path
         d="M 395.299,36.85 H 547.087 V 140.494 H 395.299 Z"
         transform="matrix(0.9966115,0,0,-1,-544.00555,114.15777)"
         id="path33" />
    </clipPath>
    <clipPath
       clipPathUnits="userSpaceOnUse"
       id="clipPath35">
      <path
         d="M 395.299,36.85 H 547.087 V 140.494 H 395.299 Z"
         transform="matrix(0.9966115,0,0,-1,-400.01535,114.15777)"
         id="path35" />
    </clipPath>
    <clipPath
       clipPathUnits="userSpaceOnUse"
       id="clipPath37">
      <path
         d="M 395.299,36.85 H 547.087 V 140.494 H 395.299 Z"
         transform="matrix(0.9966115,0,0,-1,-395.03295,114.15777)"
         id="path37" />
    </clipPath>
    <clipPath
       clipPathUnits="userSpaceOnUse"
       id="clipPath39">
      <path
         d="M 395.299,36.85 H 547.087 V 140.494 H 395.299 Z"
         transform="matrix(0.9966115,0,0,-1,-544.32975,88.421462)"
         id="path39" />
    </clipPath>
    <clipPath
       clipPathUnits="userSpaceOnUse"
       id="clipPath41">
      <path
         d="M 395.299,36.85 H 547.087 V 140.494 H 395.299 Z"
         transform="matrix(0.9966115,0,0,-1,-400.02605,88.421462)"
         id="path41" />
    </clipPath>
    <clipPath
       clipPathUnits="userSpaceOnUse"
       id="clipPath43">
      <path
         d="M 395.299,36.85 H 547.087 V 140.494 H 395.299 Z"
         transform="matrix(0.9966115,0,0,-1,-395.03295,88.421462)"
         id="path43" />
    </clipPath>
    <clipPath
       clipPathUnits="userSpaceOnUse"
       id="clipPath45">
      <path
         d="M 395.299,36.85 H 547.087 V 140.494 H 395.299 Z"
         transform="matrix(0.9966115,0,0,-1,-544.65495,62.685962)"
         id="path45" />
    </clipPath>
    <clipPath
       clipPathUnits="userSpaceOnUse"
       id="clipPath47">
      <path
         d="M 395.299,36.85 H 547.087 V 140.494 H 395.299 Z"
         transform="matrix(0.9966115,0,0,-1,-400.03685,62.685962)"
         id="path47" />
    </clipPath>
    <clipPath
       clipPathUnits="userSpaceOnUse"
       id="clipPath49">
      <path
         d="M 395.299,36.85 H 547.087 V 140.494 H 395.299 Z"
         transform="matrix(0.9966115,0,0,-1,-395.03295,62.685962)"
         id="path49" />
    </clipPath>
    <clipPath
       clipPathUnits="userSpaceOnUse"
       id="clipPath51">
      <path
         d="M 395.299,36.85 H 547.087 V 140.494 H 395.299 Z"
         transform="matrix(0.9966115,0,0,-1,-394.62025,88.609367)"
         id="path51" />
    </clipPath>
    <clipPath
       clipPathUnits="userSpaceOnUse"
       id="clipPath53">
      <path
         d="M 395.299,36.85 H 547.087 V 140.494 H 395.299 Z"
         transform="matrix(0.9966115,0,0,-1,-544.88285,37.200766)"
         id="path53" />
    </clipPath>
    <clipPath
       clipPathUnits="userSpaceOnUse"
       id="clipPath113-9">
      <path
         d="m 395.813,147.557 h 151.274 v 103.64 H 395.813 Z"
         transform="translate(-486.25031,-174.0928)"
         id="path113-1" />
    </clipPath>
  </defs>
  <g
     id="layer1">
    <g
       id="group-MC2"
       transform="matrix(0.14547037,0,0,0.14547037,-132.75184,-54.705357)">
      <path
         id="path112"
         d="m 0,0 c 9.1925366,9.5318581 13.478951,22.517033 16.861375,35.027515 2.038876,8.140543 3.653985,16.673812 2.442241,25.054103 -1.884048,6.072526 -8.621588,3.204059 -11.8151743,0.0095 C -0.09821512,54.297165 -6.719667,47.333239 -13.208015,40.3632 c -5.062364,-5.614471 -8.991224,-12.267109 -10.926291,-19.602921 -0.425168,-4.355119 -5.468955,-8.125158 -8.76853,-3.841086 -4.622045,4.758164 -6.661032,11.381052 -8.342253,17.648998 -0.55921,3.411094 -1.535955,7.581052 0.726775,10.529975 4.434705,2.211215 8.05148,-3.266673 10.771141,-6.132898 6.651842,-8.071651 10.510555,-19.567125 6.671019,-29.7305825 -2.338581,-4.776097 -8.374083,-2.6779577 -10.570786,1.0804135 -6.615335,7.858743 -9.60943,18.028348 -11.940717,27.851441 -0.90567,4.73047 -1.654378,9.87673 0.03168,14.501816 3.68761,4.688456 9.429833,-0.989166 12.529548,-3.803773 9.371712,-8.501974 17.043314,-19.643721 18.654546,-32.449173 1.10479,-6.172762 0.923721,-13.2266559 5.2091582,-18.2411672 4.2834837,-3.032561 9.19421352,1.05252784 11.7128348,4.5393947 7.550306,9.4641135 11.318651,21.2780335 14.460638,32.7923965 1.991994,8.061597 3.607919,16.552729 2.237525,24.829926 -1.843812,5.569956 -8.116323,3.231074 -11.2087334,0.235322 -7.61937784,-5.713865 -14.2027458,-12.690427 -20.7442946,-19.5756 -5.229052,-5.691577 -9.48941,-12.41634 -11.323958,-19.988714 -0.502052,-5.280695 -6.851605,-8.219359 -9.769032,-2.969309 -4.944613,5.967212 -7.144602,13.788835 -8.069013,21.356522 -1.147634,4.255249 2.861027,8.496924 6.676899,4.920198 8.953895,-7.380141 15.280507,-19.372202 13.106732,-31.1797 0.432399,-5.7252326 -7.114476,-8.9571888 -10.394424,-3.961343 -7.893991,8.700761 -11.379542,20.390424 -13.453555,31.711902 -0.614647,4.05304 -1.261738,8.681367 0.991362,12.338432 3.939591,3.195792 8.474826,-1.632576 11.47811,-4.104086 9.631367,-8.639896 17.523269,-20.091494 18.985222,-33.223766 1.115623,-6.130917 0.797064,-13.1214516 5.0045512,-18.1618227 3.5349025,-3.1591589 8.2570667,-0.040782 10.8020032,2.84786694 C 10.420315,11.675538 15.08591,25.666215 18.20955,39.48044 c 1.2386,7.471028 3.287354,15.399284 0.775184,22.820795 -2.9092,4.877687 -8.53859,0.462533 -11.7397627,-1.766426 C -0.38801753,54.152801 -7.5744539,47.205502 -14.288586,39.860637 -19.01918,34.54902 -22.822938,28.2977 -24.511483,21.338826 c -0.766966,-5.717604 -7.584612,-7.024476 -9.949156,-1.657966 -4.349772,5.693347 -6.166893,12.886221 -7.072244,19.860992 -0.636169,5.339528 5.338853,6.679587 7.959154,2.576772 7.982979,-7.136894 12.939673,-18.489467 10.552966,-29.176323 -1.050157,-5.6461035 -7.768744,-5.5714463 -10.358568,-1.189007 -6.218557,7.10882 -9.00423,16.483287 -11.196814,25.488269 -0.803283,4.389975 -1.501445,9.131898 -0.182046,13.455724 3.432081,4.195095 8.58289,-0.163873 11.362337,-2.968187 9.379744,-8.323571 16.478317,-19.800353 17.463769,-32.5079 1.044429,-8.6018925 -7.64e-4,-17.6224454 3.182247,-25.849633 2.374336,-4.221055 8.2556988,-3.280714 11.0729628,-0.06784 8.4223315,7.1868091 12.7246792,17.7854347 16.6800192,27.835929 5.47064,15.087475 9.701993,30.917789 9.916122,47.0495 0.663261,4.84596 -2.410659,12.853696 -8.445836,9.226081 C 9.0697066,69.202371 3.2407369,62.80546 -3.2488142,57.372099 -9.9768409,51.290611 -17.057962,45.619771 -24.218524,40.065801 c -5.212058,-3.385908 -4.393253,-9.492856 -4.83801,-14.738849 -2.16597,-6.348164 -7.269353,1.931571 -7.708028,5.185126 -1.746748,2.901143 -0.206699,9.434915 3.747081,5.68332 3.473195,-3.961161 6.534823,-9.593643 4.81514,-14.975461 -3.003832,-4.137964 -6.779674,1.822088 -8.118316,4.580415 -1.940756,4.022384 -3.105593,8.553037 -2.925298,13.025653 2.575526,4.841652 7.86339,-0.929902 9.422542,-3.962105 3.531658,-5.171311 5.787724,-11.932269 3.707208,-18.093916 -3.40021,-5.11874 -9.076474,1.350837 -10.47953,5.09924 -3.586562,6.484586 -5.729987,13.948959 -5.367814,21.383323 2.321199,5.413708 8.649027,0.832567 10.80047,-2.483848 7.732828,-8.367173 12.373439,-20.911887 8.184222,-32.0139936 -3.342535,-5.5592144 -10.069443,-1.2072537 -12.188959,3.1383926 -6.568909,9.329795 -9.81744,20.625735 -11.423631,31.816143 -0.153525,3.478502 -0.796764,7.844654 1.883637,10.52458 4.569645,2.251681 8.679728,-2.683617 11.916329,-5.300713 9.215836,-8.500158 16.985853,-19.420625 18.676567,-32.121803 1.170536,-5.979299 1.038899,-12.9259062 5.46974,-17.6197381 4.6158015,-2.8298232 9.3390277,1.9196813 11.881391,5.4363824 7.281679,9.8653587 11.121495,21.8088497 13.992212,33.6000837 1.442482,6.57934 2.400679,13.416326 1.67797,20.13237 C 17.476796,64.606395 10.477951,62.703726 7.2643648,59.15291 -0.23878762,53.451866 -6.7094254,46.50377 -13.01964,39.543351 -18.109927,33.54604 -21.945477,26.421903 -23.577019,18.702722 c -0.960384,-5.107901 -7.540673,-7.404144 -10.146844,-2.216766 -5.846478,7.189279 -8.563979,16.561918 -9.141645,25.694965 -0.87098,5.834437 5.921601,6.467158 8.845082,2.539281 9.643677,-8.54879 16.034318,-22.019939 13.156122,-35.0078105 -0.275418,-3.8573326 -3.367635,-8.0713057 -7.668951,-6.4141513 -4.759498,1.3447608 -6.78795,6.2968953 -9.342285,10.0421488 -6.123128,10.85976 -9.55996,23.188755 -10.578457,35.582439 0.04039,3.219953 -0.03626,8.022321 3.741961,9.09969 4.93024,0.231035 8.464738,-4.111227 11.982823,-7.001662 9.605396,-8.783024 18.512421,-19.478938 20.930047,-32.636448 1.07453,-4.166514 1.770527,-8.9874867 5.1395671,-11.9794464 C -2.1383481,4.2109755 1.869691,8.9085429 4.1037771,12.352486 10.609287,22.08619 13.955851,33.675503 15.31146,45.21448 16.592225,50.026784 13.53095,58.274742 7.5996454,54.03332 -0.1614343,48.786432 -6.5915385,41.602839 -11.521233,33.663258 -16.140507,26.457651 -17.550591,17.914947 -18.746846,9.6033444 -19.563582,5.9408619 -20.366942,1.4491483 -23.838276,-0.63048958 -28.462096,-2.3560892 -32.495705,1.9868106 -34.937366,5.3684748 -43.591335,17.601913 -47.82091,32.402013 -50.036689,47.063834 c -0.508238,4.542594 -0.987822,9.610647 1.372184,13.719799 3.623394,3.125956 8.276727,-0.679555 11.225014,-3.085584 8.710196,-7.153771 16.718067,-15.299702 23.199549,-24.535366 3.482366,-5.627631 5.0011702,-12.148559 7.3529002,-18.255543 3.5435952,-5.2570657 9.6284407,-0.353574 11.3539975,3.899546 4.6376175,7.312439 6.9204213,15.963345 7.4865363,24.533509 0.137882,6.099134 -6.6023369,6.052853 -9.3966813,1.942876 C -8.7240358,35.852196 -15.217857,19.72045 -10.655849,5.3259492 -9.6901169,0.81395824 -4.2006983,-0.80758739 -0.91554248,2.3106984 4.5553327,6.7504632 7.6555272,13.383341 10.507408,19.670291 c 4.177118,10.123175 7.085521,20.932085 7.530744,31.906837 0.284657,3.617854 -1.018524,10.23567 -6.027992,8.569292 C 6.6927317,58.124699 2.6720594,53.750371 -1.5067204,50.045731 -9.2416928,42.332255 -17.041434,33.986764 -20.305018,23.292681 c -1.701799,-4.36341 -1.705044,-9.955001 -5.70353,-13.013135 -3.618431,-1.7821261 -6.880033,1.845674 -8.917998,4.440804 -5.344078,8.027112 -8.714366,17.458443 -9.659796,27.054152 -1.269891,4.493954 0.85279,11.791541 6.778202,8.502958 5.853894,-4.091851 10.798571,-9.603934 14.53737,-15.714745 4.637262,-7.426346 6.604224,-16.232349 6.31661,-24.9332091 0.0042,-5.8907768 -0.200783,-12.2366847 -3.359117,-17.3932844 -3.644982,-3.9254565 -9.251891,-0.6196444 -11.976765,2.7215325 -7.667647,8.1791596 -11.633124,18.972287 -15.35287,29.356053 -4.050139,12.37041 -7.157589,25.321851 -6.825667,38.413161 -0.434022,4.2495 3.115473,9.853072 7.790898,6.990177 6.686824,-3.564515 12.021042,-9.129283 17.691178,-14.065144 6.409612,-6.208712 13.449329,-11.760616 19.5773716,-18.251674 3.0214611,-3.401586 5.4283141,-7.60691 5.7202039,-12.224338 1.7236796,-5.706377 7.5680616,-1.61736 8.1466226,2.516262 1.7877526,2.91518 3.8300427,12.421811 -2.2071544,9.709335 -4.0106715,-3.452969 -6.286391,-8.860766 -6.6539217,-14.096675 -0.7464539,-4.996632 5.19826735,-6.076698 7.1855857,-1.814246 3.1660118,4.852546 5.4552136,10.59696 5.5459613,16.441404 0.1414648,7.07845 -7.86552502,2.648838 -9.3682696,-1.279463 -4.6114893,-6.00393 -7.924685,-14.442627 -4.7389862,-21.834053 3.8838277,-4.8314656 9.1872315,1.803487 10.8705126,5.51147 C 9.255036,27.805546 11.906274,36.428777 11.319534,45.035888 8.9652241,50.434046 2.664786,45.984404 0.2987398,42.82173 -9.0822314,33.483931 -14.476138,18.948563 -10.005362,6.0269229 -8.4387551,1.2651058 -2.4952889,1.1399142 0.3507224,4.7688591 6.3335262,10.427196 9.3738452,18.37819 12.271802,25.910833 c 3.300973,9.288116 5.608865,19.2403 4.673858,29.130063 -1.364476,5.696993 -7.742946,3.747287 -10.7414528,0.647399 -7.02252349,-5.282552 -12.9857497,-11.902199 -18.3446292,-18.829011 -4.948575,-6.591102 -7.50556,-14.514854 -9.261532,-22.465789 -0.26683,-6.1038844 -7.57041,-10.0270232 -11.543996,-4.36329 -5.877258,6.878127 -9.204168,15.583624 -11.499797,24.23969 -1.191792,5.037638 -1.913651,10.260272 -1.734358,15.420908 1.267499,6.353161 8.303671,3.983209 11.212787,0.342754 7.369608,-6.20978 13.687164,-14.011663 17.317217,-22.990427 3.409257,-8.730682 2.862388,-18.3229152 5.39621,-27.24772997 C -10.995863,-6.673377 -2.8843762,-6.6501119 0.46178699,-1.8875825 7.8787583,6.0747358 12.049776,16.446955 15.408877,26.647514 c 3.033331,10.159111 5.880458,20.645459 5.598901,31.33099 0.767216,4.925168 -3.044385,10.766111 -8.387416,7.516273 C 2.182128,58.562094 -6.4571291,49.312835 -15.2736,40.488728 -17.584073,38.011596 -19.795822,35.416684 -21.58,32.528"
         style="fill:none;stroke:#100f0d;stroke-width:0.999998;stroke-linecap:butt;stroke-linejoin:round;stroke-miterlimit:4;stroke-dasharray:none;stroke-opacity:1"
         clip-path="url(#clipPath113)"
         transform="matrix(1.3736057,0,0,-1.3736057,999.90368,484.95286)" />
    </g>
  </g>
</svg>
