<?xml version="1.0" encoding="UTF-8" standalone="no"?>
<!-- Created with Inkscape (http://www.inkscape.org/) -->

<svg
   width="20mm"
   height="20mm"
   viewBox="0 0 20 20"
   version="1.1"
   id="svg1"
   xmlns="http://www.w3.org/2000/svg"
   xmlns:svg="http://www.w3.org/2000/svg">
  <defs
     id="defs1">
    <clipPath
       clipPathUnits="userSpaceOnUse"
       id="clipPath63">
      <path
         d="m 395.813,147.557 h 151.274 v 103.64 H 395.813 Z"
         transform="translate(-420.79591,-250.09441)"
         id="path63" />
    </clipPath>
    <clipPath
       clipPathUnits="userSpaceOnUse"
       id="clipPath65">
      <path
         d="m 395.813,147.557 h 151.274 v 103.64 H 395.813 Z"
         transform="translate(-420.79591,-245.19331)"
         id="path65" />
    </clipPath>
    <clipPath
       clipPathUnits="userSpaceOnUse"
       id="clipPath67">
      <path
         d="m 395.813,147.557 h 151.274 v 103.64 H 395.813 Z"
         transform="translate(-420.79591,-147.6556)"
         id="path67" />
    </clipPath>
    <clipPath
       clipPathUnits="userSpaceOnUse"
       id="clipPath69">
      <path
         d="m 395.813,147.557 h 151.274 v 103.64 H 395.813 Z"
         transform="translate(-445.86911,-250.09441)"
         id="path69" />
    </clipPath>
    <clipPath
       clipPathUnits="userSpaceOnUse"
       id="clipPath71">
      <path
         d="m 395.813,147.557 h 151.274 v 103.64 H 395.813 Z"
         transform="translate(-445.86911,-245.19331)"
         id="path71" />
    </clipPath>
    <clipPath
       clipPathUnits="userSpaceOnUse"
       id="clipPath73">
      <path
         d="m 395.813,147.557 h 151.274 v 103.64 H 395.813 Z"
         transform="translate(-445.86911,-147.6556)"
         id="path73" />
    </clipPath>
    <clipPath
       clipPathUnits="userSpaceOnUse"
       id="clipPath75">
      <path
         d="m 395.813,147.557 h 151.274 v 103.64 H 395.813 Z"
         transform="translate(-470.94221,-250.09441)"
         id="path75" />
    </clipPath>
    <clipPath
       clipPathUnits="userSpaceOnUse"
       id="clipPath77">
      <path
         d="m 395.813,147.557 h 151.274 v 103.64 H 395.813 Z"
         transform="translate(-470.94221,-245.19331)"
         id="path77" />
    </clipPath>
    <clipPath
       clipPathUnits="userSpaceOnUse"
       id="clipPath79">
      <path
         d="m 395.813,147.557 h 151.274 v 103.64 H 395.813 Z"
         transform="translate(-470.94221,-147.6556)"
         id="path79" />
    </clipPath>
    <clipPath
       clipPathUnits="userSpaceOnUse"
       id="clipPath81">
      <path
         d="m 395.813,147.557 h 151.274 v 103.64 H 395.813 Z"
         transform="translate(-496.01531,-250.09441)"
         id="path81" />
    </clipPath>
    <clipPath
       clipPathUnits="userSpaceOnUse"
       id="clipPath83">
      <path
         d="m 395.813,147.557 h 151.274 v 103.64 H 395.813 Z"
         transform="translate(-496.01531,-245.19331)"
         id="path83" />
    </clipPath>
    <clipPath
       clipPathUnits="userSpaceOnUse"
       id="clipPath85">
      <path
         d="m 395.813,147.557 h 151.274 v 103.64 H 395.813 Z"
         transform="translate(-496.01531,-147.6556)"
         id="path85" />
    </clipPath>
    <clipPath
       clipPathUnits="userSpaceOnUse"
       id="clipPath87">
      <path
         d="m 395.813,147.557 h 151.274 v 103.64 H 395.813 Z"
         transform="translate(-521.08942,-250.09441)"
         id="path87" />
    </clipPath>
    <clipPath
       clipPathUnits="userSpaceOnUse"
       id="clipPath89">
      <path
         d="m 395.813,147.557 h 151.274 v 103.64 H 395.813 Z"
         transform="translate(-521.08942,-245.19331)"
         id="path89" />
    </clipPath>
    <clipPath
       clipPathUnits="userSpaceOnUse"
       id="clipPath91">
      <path
         d="m 395.813,147.557 h 151.274 v 103.64 H 395.813 Z"
         transform="translate(-521.08942,-147.6556)"
         id="path91" />
    </clipPath>
    <clipPath
       clipPathUnits="userSpaceOnUse"
       id="clipPath93">
      <path
         d="m 395.813,147.557 h 151.274 v 103.64 H 395.813 Z"
         transform="translate(-545.18902,-224.86021)"
         id="path93" />
    </clipPath>
    <clipPath
       clipPathUnits="userSpaceOnUse"
       id="clipPath95">
      <path
         d="m 395.813,147.557 h 151.274 v 103.64 H 395.813 Z"
         transform="translate(-401.20501,-224.86021)"
         id="path95" />
    </clipPath>
    <clipPath
       clipPathUnits="userSpaceOnUse"
       id="clipPath97">
      <path
         d="m 395.813,147.557 h 151.274 v 103.64 H 395.813 Z"
         transform="translate(-396.22281,-224.86021)"
         id="path97" />
    </clipPath>
    <clipPath
       clipPathUnits="userSpaceOnUse"
       id="clipPath99">
      <path
         d="m 395.813,147.557 h 151.274 v 103.64 H 395.813 Z"
         transform="translate(-545.51321,-199.125)"
         id="path99" />
    </clipPath>
    <clipPath
       clipPathUnits="userSpaceOnUse"
       id="clipPath101">
      <path
         d="m 395.813,147.557 h 151.274 v 103.64 H 395.813 Z"
         transform="translate(-401.21581,-199.125)"
         id="path101" />
    </clipPath>
    <clipPath
       clipPathUnits="userSpaceOnUse"
       id="clipPath103">
      <path
         d="m 395.813,147.557 h 151.274 v 103.64 H 395.813 Z"
         transform="translate(-396.22281,-199.125)"
         id="path103" />
    </clipPath>
    <clipPath
       clipPathUnits="userSpaceOnUse"
       id="clipPath105">
      <path
         d="m 395.813,147.557 h 151.274 v 103.64 H 395.813 Z"
         transform="translate(-545.83841,-173.3907)"
         id="path105" />
    </clipPath>
    <clipPath
       clipPathUnits="userSpaceOnUse"
       id="clipPath107">
      <path
         d="m 395.813,147.557 h 151.274 v 103.64 H 395.813 Z"
         transform="translate(-401.22651,-173.3907)"
         id="path107" />
    </clipPath>
    <clipPath
       clipPathUnits="userSpaceOnUse"
       id="clipPath109">
      <path
         d="m 395.813,147.557 h 151.274 v 103.64 H 395.813 Z"
         transform="translate(-396.22281,-173.3907)"
         id="path109" />
    </clipPath>
    <clipPath
       clipPathUnits="userSpaceOnUse"
       id="clipPath111">
      <path
         d="m 395.813,147.557 h 151.274 v 103.64 H 395.813 Z"
         transform="translate(-546.73661,-147.9066)"
         id="path111" />
    </clipPath>
    <clipPath
       clipPathUnits="userSpaceOnUse"
       id="clipPath113">
      <path
         d="m 395.813,147.557 h 151.274 v 103.64 H 395.813 Z"
         transform="translate(-486.25031,-174.0928)"
         id="path113" />
    </clipPath>
    <clipPath
       clipPathUnits="userSpaceOnUse"
       id="clipPath3">
      <path
         d="M 395.299,36.85 H 547.087 V 140.494 H 395.299 Z"
         transform="matrix(0.9966115,0,0,-1,-419.60715,139.39296)"
         id="path3" />
    </clipPath>
    <clipPath
       clipPathUnits="userSpaceOnUse"
       id="clipPath5">
      <path
         d="M 395.299,36.85 H 547.087 V 140.494 H 395.299 Z"
         transform="matrix(0.9966115,0,0,-1,-419.60715,134.49177)"
         id="path5" />
    </clipPath>
    <clipPath
       clipPathUnits="userSpaceOnUse"
       id="clipPath7">
      <path
         d="M 395.299,36.85 H 547.087 V 140.494 H 395.299 Z"
         transform="matrix(0.9966115,0,0,-1,-419.60715,36.949666)"
         id="path7" />
    </clipPath>
    <clipPath
       clipPathUnits="userSpaceOnUse"
       id="clipPath9">
      <path
         d="M 395.299,36.85 H 547.087 V 140.494 H 395.299 Z"
         transform="matrix(0.9966115,0,0,-1,-444.68135,139.39296)"
         id="path9" />
    </clipPath>
    <clipPath
       clipPathUnits="userSpaceOnUse"
       id="clipPath11">
      <path
         d="M 395.299,36.85 H 547.087 V 140.494 H 395.299 Z"
         transform="matrix(0.9966115,0,0,-1,-444.68135,134.49177)"
         id="path11" />
    </clipPath>
    <clipPath
       clipPathUnits="userSpaceOnUse"
       id="clipPath13">
      <path
         d="M 395.299,36.85 H 547.087 V 140.494 H 395.299 Z"
         transform="matrix(0.9966115,0,0,-1,-444.68135,36.949666)"
         id="path13" />
    </clipPath>
    <clipPath
       clipPathUnits="userSpaceOnUse"
       id="clipPath15">
      <path
         d="M 395.299,36.85 H 547.087 V 140.494 H 395.299 Z"
         transform="matrix(0.9966115,0,0,-1,-469.75555,139.39296)"
         id="path15" />
    </clipPath>
    <clipPath
       clipPathUnits="userSpaceOnUse"
       id="clipPath17">
      <path
         d="M 395.299,36.85 H 547.087 V 140.494 H 395.299 Z"
         transform="matrix(0.9966115,0,0,-1,-469.75555,134.49177)"
         id="path17" />
    </clipPath>
    <clipPath
       clipPathUnits="userSpaceOnUse"
       id="clipPath19">
      <path
         d="M 395.299,36.85 H 547.087 V 140.494 H 395.299 Z"
         transform="matrix(0.9966115,0,0,-1,-469.75555,36.949666)"
         id="path19" />
    </clipPath>
    <clipPath
       clipPathUnits="userSpaceOnUse"
       id="clipPath21">
      <path
         d="M 395.299,36.85 H 547.087 V 140.494 H 395.299 Z"
         transform="matrix(0.9966115,0,0,-1,-494.82985,139.39296)"
         id="path21" />
    </clipPath>
    <clipPath
       clipPathUnits="userSpaceOnUse"
       id="clipPath23">
      <path
         d="M 395.299,36.85 H 547.087 V 140.494 H 395.299 Z"
         transform="matrix(0.9966115,0,0,-1,-494.82985,134.49177)"
         id="path23" />
    </clipPath>
    <clipPath
       clipPathUnits="userSpaceOnUse"
       id="clipPath25">
      <path
         d="M 395.299,36.85 H 547.087 V 140.494 H 395.299 Z"
         transform="matrix(0.9966115,0,0,-1,-494.82985,36.949666)"
         id="path25" />
    </clipPath>
    <clipPath
       clipPathUnits="userSpaceOnUse"
       id="clipPath27">
      <path
         d="M 395.299,36.85 H 547.087 V 140.494 H 395.299 Z"
         transform="matrix(0.9966115,0,0,-1,-519.90495,139.39296)"
         id="path27" />
    </clipPath>
    <clipPath
       clipPathUnits="userSpaceOnUse"
       id="clipPath29">
      <path
         d="M 395.299,36.85 H 547.087 V 140.494 H 395.299 Z"
         transform="matrix(0.9966115,0,0,-1,-519.90495,134.49177)"
         id="path29" />
    </clipPath>
    <clipPath
       clipPathUnits="userSpaceOnUse"
       id="clipPath31">
      <path
         d="M 395.299,36.85 H 547.087 V 140.494 H 395.299 Z"
         transform="matrix(0.9966115,0,0,-1,-519.90495,36.949666)"
         id="path31" />
    </clipPath>
    <clipPath
       clipPathUnits="userSpaceOnUse"
       id="clipPath33">
      <path
         d="M 395.299,36.85 H 547.087 V 140.494 H 395.299 Z"
         transform="matrix(0.9966115,0,0,-1,-544.00555,114.15777)"
         id="path33" />
    </clipPath>
    <clipPath
       clipPathUnits="userSpaceOnUse"
       id="clipPath35">
      <path
         d="M 395.299,36.85 H 547.087 V 140.494 H 395.299 Z"
         transform="matrix(0.9966115,0,0,-1,-400.01535,114.15777)"
         id="path35" />
    </clipPath>
    <clipPath
       clipPathUnits="userSpaceOnUse"
       id="clipPath37">
      <path
         d="M 395.299,36.85 H 547.087 V 140.494 H 395.299 Z"
         transform="matrix(0.9966115,0,0,-1,-395.03295,114.15777)"
         id="path37" />
    </clipPath>
    <clipPath
       clipPathUnits="userSpaceOnUse"
       id="clipPath39">
      <path
         d="M 395.299,36.85 H 547.087 V 140.494 H 395.299 Z"
         transform="matrix(0.9966115,0,0,-1,-544.32975,88.421462)"
         id="path39" />
    </clipPath>
    <clipPath
       clipPathUnits="userSpaceOnUse"
       id="clipPath41">
      <path
         d="M 395.299,36.85 H 547.087 V 140.494 H 395.299 Z"
         transform="matrix(0.9966115,0,0,-1,-400.02605,88.421462)"
         id="path41" />
    </clipPath>
    <clipPath
       clipPathUnits="userSpaceOnUse"
       id="clipPath43">
      <path
         d="M 395.299,36.85 H 547.087 V 140.494 H 395.299 Z"
         transform="matrix(0.9966115,0,0,-1,-395.03295,88.421462)"
         id="path43" />
    </clipPath>
    <clipPath
       clipPathUnits="userSpaceOnUse"
       id="clipPath45">
      <path
         d="M 395.299,36.85 H 547.087 V 140.494 H 395.299 Z"
         transform="matrix(0.9966115,0,0,-1,-544.65495,62.685962)"
         id="path45" />
    </clipPath>
    <clipPath
       clipPathUnits="userSpaceOnUse"
       id="clipPath47">
      <path
         d="M 395.299,36.85 H 547.087 V 140.494 H 395.299 Z"
         transform="matrix(0.9966115,0,0,-1,-400.03685,62.685962)"
         id="path47" />
    </clipPath>
    <clipPath
       clipPathUnits="userSpaceOnUse"
       id="clipPath49">
      <path
         d="M 395.299,36.85 H 547.087 V 140.494 H 395.299 Z"
         transform="matrix(0.9966115,0,0,-1,-395.03295,62.685962)"
         id="path49" />
    </clipPath>
    <clipPath
       clipPathUnits="userSpaceOnUse"
       id="clipPath51">
      <path
         d="M 395.299,36.85 H 547.087 V 140.494 H 395.299 Z"
         transform="matrix(0.9966115,0,0,-1,-394.62025,88.609367)"
         id="path51" />
    </clipPath>
    <clipPath
       clipPathUnits="userSpaceOnUse"
       id="clipPath53">
      <path
         d="M 395.299,36.85 H 547.087 V 140.494 H 395.299 Z"
         transform="matrix(0.9966115,0,0,-1,-544.88285,37.200766)"
         id="path53" />
    </clipPath>
    <clipPath
       clipPathUnits="userSpaceOnUse"
       id="clipPath113-9">
      <path
         d="m 395.813,147.557 h 151.274 v 103.64 H 395.813 Z"
         transform="translate(-486.25031,-174.0928)"
         id="path113-1" />
    </clipPath>
    <clipPath
       clipPathUnits="userSpaceOnUse"
       id="clipPath51-6">
      <path
         d="M 395.299,36.85 H 547.087 V 140.494 H 395.299 Z"
         transform="matrix(0.9966115,0,0,-1,-394.62025,88.609367)"
         id="path51-0" />
    </clipPath>
  </defs>
  <g
     id="layer1">
    <path
       id="path50"
       d="m 0,0 11.228,0.062 1.25,-18.965 0.833,-10.747 0.694,-7.246 0.556,-4.476 0.416,-2.518 0.417,-1.766 0.277,-0.753 0.278,-0.41 0.139,-0.077 0.139,0.007 0.138,0.092 0.278,0.435 0.278,0.762 0.278,1.08 0.416,2.19 0.417,2.833 0.555,4.676 0.694,7.063 0.833,9.792 3.055,37.475 0.694,6.627 0.555,4.34 0.555,3.372 0.417,1.848 0.416,1.243 0.278,0.487 0.278,0.214 0.139,0.004 0.138,-0.063 0.278,-0.326 0.278,-0.589 0.278,-0.844 0.416,-1.725 0.417,-2.241 0.555,-3.712 0.694,-5.622 0.833,-7.812 3.193,-31.172 0.695,-5.135 0.555,-3.317 0.555,-2.527 0.417,-1.345 0.277,-0.626 0.278,-0.408 0.278,-0.188 0.139,-0.013 0.139,0.042 0.277,0.245 0.278,0.454 0.278,0.66 0.416,1.358 0.417,1.772 0.555,2.946 0.694,4.475 0.833,6.232 3.193,24.979 0.695,4.136 0.555,2.679 0.555,2.049 0.417,1.097 0.278,0.515 0.277,0.34 0.278,0.165 0.278,-0.01 0.277,-0.182 0.278,-0.35 0.278,-0.516 0.416,-1.068 0.417,-1.401 0.555,-2.338 0.694,-3.561 0.833,-4.972 3.193,-20.016 0.695,-3.331 0.555,-2.163 0.555,-1.661 0.417,-0.894 0.416,-0.583 0.278,-0.213 0.278,-0.073 0.277,0.066 0.278,0.203 0.278,0.336 0.416,0.747 0.417,1.021 0.555,1.751 0.694,2.728 0.833,3.88 1.389,7.223 1.388,7.029 0.833,3.614 0.694,2.469 0.556,1.551 0.416,0.891 0.417,0.646 0.277,0.292 0.278,0.179 0.278,0.068 0.277,-0.044 0.278,-0.154 0.278,-0.261 0.416,-0.585 0.417,-0.806 0.555,-1.388 0.694,-2.17 0.833,-3.093 1.389,-5.775 1.388,-5.636 0.833,-2.906 0.694,-1.99 0.556,-1.254 0.416,-0.723 0.417,-0.528 0.416,-0.328 0.278,-0.106 0.278,-0.016 0.277,0.072 0.278,0.159 0.416,0.398 0.417,0.578 0.555,1.031 0.556,1.293 0.694,1.921 0.972,3.082 2.499,8.153 0.833,2.198 0.694,1.46 0.555,0.883 0.417,0.484 0.416,0.324 0.417,0.163 0.278,0.019 0.277,-0.052 0.417,-0.209 0.416,-0.36 0.417,-0.501 0.555,-0.872 0.694,-1.372 0.833,-1.966 1.25,-3.314 1.527,-4 0.833,-1.878 0.694,-1.293 0.556,-0.82 0.555,-0.607 0.417,-0.309 0.416,-0.181 0.417,-0.051 0.416,0.077 0.417,0.202 0.416,0.32 0.556,0.599 0.555,0.776 0.694,1.178 0.972,1.93 2.916,6.032 0.694,1.127 0.694,0.902 0.555,0.536 0.417,0.287 0.416,0.185 0.417,0.08 0.416,-0.022 0.417,-0.123 0.416,-0.22 0.556,-0.435 0.555,-0.582 0.694,-0.904 0.833,-1.28 1.527,-2.615 1.25,-2.062 0.833,-1.18 0.694,-0.804 0.556,-0.502 0.555,-0.366 0.555,-0.221 0.417,-0.069 0.416,0.014 0.417,0.094 0.555,0.246 0.556,0.374 0.694,0.627 0.833,0.941 1.11,1.463 2.222,2.98 0.833,0.92 0.694,0.619 0.555,0.379 0.556,0.269 0.555,0.152 0.556,0.034 0.555,-0.082 0.555,-0.192 0.556,-0.296 0.694,-0.497 0.833,-0.749 1.11,-1.168 2.222,-2.389 0.833,-0.74 0.694,-0.499 0.694,-0.37 0.556,-0.196 0.555,-0.102 0.555,-0.008 0.556,0.085 0.555,0.172 0.694,0.328 0.694,0.435 0.972,0.747 1.666,1.461 1.389,1.156 0.833,0.577 0.833,0.447 0.694,0.256 0.694,0.141 0.417,0.028"
       style="font-variation-settings:normal;vector-effect:none;fill:none;fill-opacity:1;stroke:#100f0d;stroke-width:0.748727;stroke-linecap:butt;stroke-linejoin:round;stroke-miterlimit:4;stroke-dasharray:none;stroke-dashoffset:0;stroke-opacity:1;-inkscape-stroke:none;stop-color:#000000"
       transform="matrix(0.19503301,0,0,0.19437214,-1.3239984,10.730546)"
       clip-path="url(#clipPath51-6)" />
  </g>
</svg>
