<?xml version="1.0" encoding="UTF-8" standalone="no"?>
<!-- Created with Inkscape (http://www.inkscape.org/) -->

<svg
   width="5.4889712mm"
   height="6.6027479mm"
   viewBox="0 0 5.4889713 6.6027478"
   version="1.1"
   id="svg1"
   xmlns="http://www.w3.org/2000/svg"
   xmlns:svg="http://www.w3.org/2000/svg">
  <defs
     id="defs1" />
  <g
     id="layer1"
     transform="translate(-18.4945,-10.656176)">
    <g
       fill="#000000"
       fill-opacity="1"
       id="prod-inline"
       transform="matrix(0.31964891,0,0,0.31964891,9.4128843,9.6521586)"
       style="stroke-width:1.10364">
      <g
         id="g7"
         transform="translate(27.254972,3.141)"
         style="stroke-width:1.10364">
        <path
           d="m 7.421875,20.65625 v -0.828125 c -2.140625,0 -2.140625,-1.015625 -2.140625,-1.625 v -17.375 h 8.90625 v 17.375 c 0,0.609375 0,1.625 -2.125,1.625 v 0.828125 h 6.265625 v -0.828125 c -2.140625,0 -2.140625,-1.015625 -2.140625,-1.625 v -15.75 c 0,-0.609375 0,-1.625 2.140625,-1.625 V 0 H 1.15625 v 0.828125 c 2.125,0 2.125,1.015625 2.125,1.625 v 15.75 c 0,0.609375 0,1.625 -2.125,1.625 v 0.828125 z m 0,0"
           id="path3"
           style="stroke-width:1.10364" />
      </g>
    </g>
  </g>
</svg>
