<?xml version="1.0" encoding="UTF-8" standalone="no"?>
<!-- Created with Inkscape (http://www.inkscape.org/) -->

<svg
   width="3.65099mm"
   height="7.3369412mm"
   viewBox="0 0 3.65099 7.3369412"
   version="1.1"
   id="svg1"
   xmlns="http://www.w3.org/2000/svg"
   xmlns:svg="http://www.w3.org/2000/svg">
  <defs
     id="defs1" />
  <g
     id="layer1"
     transform="translate(-25.830453,-10.289219)">
    <g
       fill="#000000"
       fill-opacity="1"
       id="int-inline"
       transform="matrix(0.31964891,0,0,0.31964891,9.4128843,9.6521586)"
       style="stroke-width:1.10364">
      <g
         id="g9"
         transform="translate(50.205002,1.993)"
         style="stroke-width:1.10364">
        <path
           d="M 5.625,18.171875 C 5.34375,21.5625 4.609375,22.5 3.421875,22.5 3.15625,22.5 2.546875,22.4375 2.109375,22.0625 2.703125,21.984375 2.875,21.5 2.875,21.21875 c 0,-0.609375 -0.453125,-0.875 -0.84375,-0.875 -0.421875,0 -0.875,0.265625 -0.875,0.890625 0,0.984375 1.03125,1.71875 2.265625,1.71875 1.96875,0 2.953125,-1.796875 3.421875,-3.65625 0.265625,-1.078125 1,-7.09375 1.171875,-9.375 L 8.40625,4.765625 c 0.296875,-3.796875 1,-4.3125 1.921875,-4.3125 0.203125,0 0.84375,0.046875 1.296875,0.4375 -0.59375,0.078125 -0.765625,0.5625 -0.765625,0.84375 0,0.59375 0.453125,0.875 0.859375,0.875 0.40625,0 0.859375,-0.28125 0.859375,-0.890625 0,-1 -1.03125,-1.71875 -2.265625,-1.71875 -1.96875,0 -2.765625,2 -3.125,3.578125 -0.25,1.125 -0.984375,6.953125 -1.171875,9.453125 z m 0,0"
           id="path9"
           style="stroke-width:1.10364" />
      </g>
    </g>
  </g>
</svg>
