<?xml version="1.0" encoding="UTF-8" standalone="no"?>
<!-- Created with Inkscape (http://www.inkscape.org/) -->

<svg
   width="28.738396mm"
   height="26.136337mm"
   viewBox="0 0 28.738396 26.136337"
   version="1.1"
   id="svg1"
   xmlns="http://www.w3.org/2000/svg"
   xmlns:svg="http://www.w3.org/2000/svg">
  <defs
     id="defs1" />
  <g
     id="layer1"
     transform="translate(-9.0453396,-9.061998)">
    <g
       fill="#000000"
       fill-opacity="1"
       id="sum-block"
       transform="matrix(0.31964891,0,0,0.31964891,-48.573535,18.346795)"
       style="stroke-width:1.10364">
      <g
         id="use3"
         transform="translate(183.32201,11.484)"
         style="stroke-width:1.10364">
        <path
           d="m 26.15625,28.921875 2.5,-6.609375 h -0.515625 c -0.8125,2.140625 -3,3.546875 -5.375,4.171875 C 22.328125,26.578125 20.3125,27.125 16.34375,27.125 H 3.890625 l 10.5,-12.328125 c 0.15625,-0.171875 0.1875,-0.234375 0.1875,-0.34375 0,-0.03125 0,-0.09375 -0.140625,-0.296875 L 4.8125,0.984375 H 16.125 c 2.78125,0 4.65625,0.296875 4.84375,0.34375 1.109375,0.15625 2.90625,0.515625 4.546875,1.546875 0.515625,0.328125 1.921875,1.25 2.625,2.921875 H 28.65625 L 26.15625,0 H 1.734375 c -0.46875,0 -0.5,0.015625 -0.5625,0.140625 C 1.15625,0.203125 1.15625,0.59375 1.15625,0.828125 L 12.078125,15.78125 1.390625,28.3125 c -0.21875,0.25 -0.21875,0.359375 -0.21875,0.375 0,0.234375 0.1875,0.234375 0.5625,0.234375 z m 0,0"
           id="path6"
           style="stroke-width:1.10364" />
      </g>
    </g>
    <g
       fill="#000000"
       fill-opacity="1"
       id="prod-block"
       transform="matrix(0.31964891,0,0,0.31964891,-48.573535,18.346795)"
       style="stroke-width:1.10364">
      <g
         id="use4"
         transform="translate(216.61755,11.484)"
         style="stroke-width:1.10364">
        <path
           d="m 25.21875,28.921875 v -1.125 c -2.75,0 -3.390625,-0.9375 -3.390625,-2.265625 V 3.390625 c 0,-1.34375 0.671875,-2.28125 3.390625,-2.28125 V 0 H 1.15625 v 1.109375 c 2.75,0 3.390625,0.953125 3.390625,2.28125 V 25.53125 c 0,1.34375 -0.65625,2.265625 -3.390625,2.265625 v 1.125 h 9.9375 v -1.125 c -2.75,0 -3.390625,-0.9375 -3.390625,-2.265625 V 1.109375 h 10.96875 V 25.53125 c 0,1.34375 -0.65625,2.265625 -3.390625,2.265625 v 1.125 z m 0,0"
           id="path7"
           style="stroke-width:1.10364" />
      </g>
    </g>
    <g
       fill="#000000"
       fill-opacity="1"
       id="int-block"
       transform="matrix(0.31964891,0,0,0.31964891,-48.573535,18.346795)"
       style="stroke-width:1.10364">
      <g
         id="use5"
         transform="translate(246.457,2.9890001)"
         style="stroke-width:1.10364">
        <path
           d="m 2.140625,44.96875 c 0.671875,-0.04687 1.015625,-0.5 1.015625,-1.015625 0,-0.671875 -0.515625,-1.015625 -0.984375,-1.015625 -0.5,0 -1.015625,0.3125 -1.015625,1.046875 0,1.046875 1.03125,1.90625 2.296875,1.90625 3.140625,0 4.3125,-4.828125 5.78125,-10.8125 1.59375,-6.53125 2.9375,-13.125 4.046875,-19.75 0.765625,-4.40625 1.53125,-8.53125 2.234375,-11.203125 0.25,-1 0.953125,-3.671875 1.75,-3.671875 0.640625,0 1.15625,0.390625 1.25,0.46875 -0.6875,0.046875 -1.046875,0.5 -1.046875,1.015625 0,0.6875 0.515625,1.015625 1,1.015625 0.5,0 1.015625,-0.3125 1.015625,-1.03125 C 19.484375,0.8125 18.359375,0 17.234375,0 15.65625,0 14.5,2.25 13.359375,6.46875 13.296875,6.6875 10.5,17.0625 8.21875,30.578125 c -0.53125,3.15625 -1.140625,6.609375 -1.8125,9.46875 -0.375,1.515625 -1.328125,5.390625 -3,5.390625 -0.734375,0 -1.234375,-0.46875 -1.265625,-0.46875 z m 0,0"
           id="path8"
           style="stroke-width:1.10364" />
      </g>
    </g>
    <g
       fill="#000000"
       fill-opacity="1"
       id="sum-inline"
       transform="matrix(0.31964891,0,0,0.31964891,9.4128843,9.6521586)"
       style="stroke-width:1.10364">
      <g
         id="g2"
         transform="translate(1.993,3.141)"
         style="stroke-width:1.10364">
        <path
           d="m 8.703125,11.03125 -7.34375,9.0625 c -0.15625,0.21875 -0.1875,0.25 -0.1875,0.328125 0,0.234375 0.1875,0.234375 0.5625,0.234375 h 17.125 l 1.78125,-5.140625 H 20.125 c -0.515625,1.546875 -1.90625,2.8125 -3.65625,3.40625 -0.34375,0.109375 -1.765625,0.59375 -4.796875,0.59375 H 2.890625 L 10.0625,10.65625 c 0.140625,-0.1875 0.1875,-0.25 0.1875,-0.328125 0,-0.07813 -0.03125,-0.109375 -0.15625,-0.296875 L 3.390625,0.828125 H 11.5625 c 2.359375,0 7.109375,0.140625 8.5625,4 h 0.515625 L 18.859375,0 h -17.125 C 1.171875,0 1.15625,0.015625 1.15625,0.65625 Z m 0,0"
           id="path1"
           style="stroke-width:1.10364" />
      </g>
    </g>
    <g
       fill="#000000"
       fill-opacity="1"
       id="prod-inline"
       transform="matrix(0.31964891,0,0,0.31964891,9.4128843,9.6521586)"
       style="stroke-width:1.10364">
      <g
         id="g7"
         transform="translate(27.254972,3.141)"
         style="stroke-width:1.10364">
        <path
           d="m 7.421875,20.65625 v -0.828125 c -2.140625,0 -2.140625,-1.015625 -2.140625,-1.625 v -17.375 h 8.90625 v 17.375 c 0,0.609375 0,1.625 -2.125,1.625 v 0.828125 h 6.265625 v -0.828125 c -2.140625,0 -2.140625,-1.015625 -2.140625,-1.625 v -15.75 c 0,-0.609375 0,-1.625 2.140625,-1.625 V 0 H 1.15625 v 0.828125 c 2.125,0 2.125,1.015625 2.125,1.625 v 15.75 c 0,0.609375 0,1.625 -2.125,1.625 v 0.828125 z m 0,0"
           id="path3"
           style="stroke-width:1.10364" />
      </g>
    </g>
    <g
       fill="#000000"
       fill-opacity="1"
       id="int-inline"
       transform="matrix(0.31964891,0,0,0.31964891,9.4128843,9.6521586)"
       style="stroke-width:1.10364">
      <g
         id="g9"
         transform="translate(50.205002,1.993)"
         style="stroke-width:1.10364">
        <path
           d="M 5.625,18.171875 C 5.34375,21.5625 4.609375,22.5 3.421875,22.5 3.15625,22.5 2.546875,22.4375 2.109375,22.0625 2.703125,21.984375 2.875,21.5 2.875,21.21875 c 0,-0.609375 -0.453125,-0.875 -0.84375,-0.875 -0.421875,0 -0.875,0.265625 -0.875,0.890625 0,0.984375 1.03125,1.71875 2.265625,1.71875 1.96875,0 2.953125,-1.796875 3.421875,-3.65625 0.265625,-1.078125 1,-7.09375 1.171875,-9.375 L 8.40625,4.765625 c 0.296875,-3.796875 1,-4.3125 1.921875,-4.3125 0.203125,0 0.84375,0.046875 1.296875,0.4375 -0.59375,0.078125 -0.765625,0.5625 -0.765625,0.84375 0,0.59375 0.453125,0.875 0.859375,0.875 0.40625,0 0.859375,-0.28125 0.859375,-0.890625 0,-1 -1.03125,-1.71875 -2.265625,-1.71875 -1.96875,0 -2.765625,2 -3.125,3.578125 -0.25,1.125 -0.984375,6.953125 -1.171875,9.453125 z m 0,0"
           id="path9"
           style="stroke-width:1.10364" />
      </g>
    </g>
  </g>
</svg>
