<?xml version="1.0" encoding="UTF-8" standalone="no"?>
<svg
   width="667"
   height="544"
   viewBox="0 0 667 544"
   fill="none"
   version="1.1"
   id="svg56"
   xmlns="http://www.w3.org/2000/svg"
   xmlns:svg="http://www.w3.org/2000/svg">
  <g
     clip-path="url(#clip0_2419_1181)"
     id="g27">
    <path
       d="M1.27661 181.328V317.763L133.085 543.024L642.081 402.318L662.805 283.96"
       fill="url(#paint0_radial_2419_1181)"
       id="path1" />
    <path
       d="M1.27661 181.328V317.763L133.085 543.024L642.081 402.318L662.805 283.96"
       stroke="#2B307B"
       stroke-width="2"
       stroke-miterlimit="10"
       id="path2" />
    <path
       d="M134.743 410.595L133.085 543.851"
       stroke="#2B307B"
       stroke-miterlimit="10"
       id="path3" />
    <path
       d="M142.204 494.124L509.443 395.696"
       stroke="#2B307B"
       stroke-width="2"
       stroke-miterlimit="10"
       id="path4" />
    <path
       d="M524.365 349.347L625.501 322.861L615.553 375.833L517.733 402.318L524.365 349.347Z"
       stroke="#2B307B"
       stroke-width="2"
       stroke-miterlimit="10"
       id="path5" />
    <path
       d="M1.27664 181.327L133.914 409.767L142.204 408.111L145.056 409.767L152.152 408.111L157.126 416.388L172.047 413.077L371.003 361.761L372.661 348.519L458.875 326.999L460.533 328.654L467.165 326.999L473.797 335.276L662.805 283.96L666.121 262.44L662.805 259.129H664.463V254.163L662.805 252.508H656.173L654.516 250.852H651.2L581.565 178.017L584.881 169.74L576.591 161.463L569.959 163.119L568.301 164.774L576.591 106.836L574.933 103.526L545.09 110.147L546.748 78.6953L545.09 77.04L520.22 82.0061L521.878 52.2096L518.562 50.5543L493.693 55.5203L497.009 27.3793L493.693 25.7239L470.481 30.69L472.139 2.54891L470.481 0.893555L190.285 58.8311V123.39H185.311L178.679 120.079L173.705 121.735V130.011L180.337 138.288V143.254L145.52 149.876V146.565L142.204 143.254L135.572 144.91L132.256 136.633H125.624V130.011L123.966 126.701H118.992L117.334 121.735L112.36 120.079L110.702 123.39L112.36 128.356V139.944L102.413 143.254V154.842L82.517 158.152L79.2011 153.186L72.5692 154.842V164.774L1.27664 181.327Z"
       fill="url(#paint1_radial_2419_1181)"
       stroke="#2B307B"
       stroke-width="2"
       stroke-miterlimit="10"
       id="path6" />
    <path
       d="M180.337 138.288V161.695L183.653 169.74L467.165 103.526L472.139 2.54891L470.481 0.893555L190.285 58.8311V123.39L178.679 120.079L173.705 121.735V130.011L180.337 138.288Z"
       fill="url(#paint2_radial_2419_1181)"
       stroke="#2B307B"
       stroke-width="2"
       stroke-miterlimit="10"
       id="path7" />
    <path
       d="M201.891 164.775V188.181L205.207 196.226L488.719 130.012L497.009 27.38L493.693 25.7246L211.838 85.3175V149.876L200.233 146.566L195.259 148.221V156.498L201.891 164.775Z"
       fill="url(#paint3_radial_2419_1181)"
       stroke="#2B307B"
       stroke-width="2"
       stroke-miterlimit="10"
       id="path8" />
    <path
       d="M221.786 191.26V214.667L225.102 222.712L511.101 154.015L521.878 52.21L518.562 50.5547L231.734 111.803V176.362L220.128 173.051L215.154 174.706V182.983L221.786 191.26Z"
       fill="url(#paint4_radial_2419_1181)"
       stroke="#2B307B"
       stroke-width="2"
       stroke-miterlimit="10"
       id="path9" />
    <path
       d="M244.998 219.401V242.807L248.314 250.853L538.458 179.672L546.748 78.6954L545.09 77.04L254.946 139.944V204.503L243.34 201.192L238.366 202.847V211.124L244.998 219.401Z"
       fill="url(#paint5_radial_2419_1181)"
       stroke="#2B307B"
       stroke-width="2"
       stroke-miterlimit="10"
       id="path10" />
    <path
       d="M268.209 250.853V274.26L271.525 282.305L561.669 211.125L576.591 106.837L574.933 103.526L278.157 171.396V235.955L266.551 232.644L261.577 234.3V242.576L268.209 250.853Z"
       fill="url(#paint6_radial_2419_1181)"
       stroke="#2B307B"
       stroke-width="2"
       stroke-miterlimit="10"
       id="path11" />
    <path
       d="M71.9557 196.226L95.7807 235.955L140.546 224.367V206.986L113.72 169.74L74.2272 178.017L71.9557 181.46V196.226Z"
       fill="url(#paint7_radial_2419_1181)"
       stroke="#2B307B"
       stroke-width="2"
       stroke-miterlimit="10"
       id="path12" />
    <path
       d="M74.2272 178.017L99.0967 217.745L140.546 206.985"
       stroke="#2B307B"
       stroke-width="2"
       stroke-miterlimit="10"
       id="path13" />
    <path
       d="M97.4387 234.299V215.858"
       stroke="#2B307B"
       stroke-width="2"
       stroke-miterlimit="10"
       id="path14" />
    <path
       d="M106.773 250.853L130.598 290.581L175.363 278.994V261.613L148.537 224.367L109.044 232.644L106.773 236.087V250.853Z"
       fill="url(#paint8_radial_2419_1181)"
       stroke="#2B307B"
       stroke-width="2"
       stroke-miterlimit="10"
       id="path15" />
    <path
       d="M109.044 232.644L133.914 272.372L175.363 261.612"
       fill="url(#paint9_radial_2419_1181)"
       id="path16" />
    <path
       d="M109.044 232.644L133.914 272.372L175.363 261.612"
       stroke="#2B307B"
       stroke-width="2"
       stroke-miterlimit="10"
       id="path17" />
    <path
       d="M132.256 288.926V270.485"
       stroke="#2B307B"
       stroke-width="2"
       stroke-miterlimit="10"
       id="path18" />
    <path
       d="M46.1081 219.401V196.226L65.9373 191.26L86.3469 221.056V243.619L64.2794 249.197L46.1081 219.401Z"
       fill="url(#paint10_radial_2419_1181)"
       stroke="#2B307B"
       stroke-width="2"
       stroke-miterlimit="10"
       id="path19" />
    <path
       d="M46.8707 197.054L65.1084 225.195L64.2794 249.197"
       fill="url(#paint11_radial_2419_1181)"
       id="path20" />
    <path
       d="M46.8707 197.054L65.1084 225.195L64.2794 249.197"
       stroke="#2B307B"
       stroke-width="2"
       stroke-miterlimit="10"
       id="path21" />
    <path
       d="M86.3469 221.057L65.1084 225.195"
       stroke="#2B307B"
       stroke-width="2"
       stroke-miterlimit="10"
       id="path22" />
    <path
       d="M66.0037 257.474V234.299L85.8329 229.333L106.243 259.129V281.692L84.175 287.271L66.0037 257.474Z"
       fill="url(#paint12_radial_2419_1181)"
       stroke="#2B307B"
       stroke-width="2"
       stroke-miterlimit="10"
       id="path23" />
    <path
       d="M66.7663 235.127L85.004 263.268L84.175 287.271"
       fill="url(#paint13_radial_2419_1181)"
       id="path24" />
    <path
       d="M66.7663 235.127L85.004 263.268L84.175 287.271"
       stroke="#2B307B"
       stroke-width="2"
       stroke-miterlimit="10"
       id="path25" />
    <path
       d="M106.243 259.13L85.004 263.268"
       stroke="#2B307B"
       stroke-width="2"
       stroke-miterlimit="10"
       id="path26" />
    <path
       d="M142.204 322.033V345.44L145.52 353.485L462.191 275.683L470.481 164.774L152.152 237.61V307.135L140.546 303.824L135.572 305.48V313.757L142.204 322.033Z"
       fill="url(#paint14_radial_2419_1181)"
       stroke="#2B307B"
       stroke-width="2"
       stroke-miterlimit="10"
       id="path27" />
  </g>
  <defs
     id="defs56">
    <radialGradient
       id="paint0_radial_2419_1181"
       cx="0"
       cy="0"
       r="1"
       gradientUnits="userSpaceOnUse"
       gradientTransform="translate(667.17 361.293) rotate(-167.814) scale(559.751 623.87)">
      <stop
         stop-color="#DBDBDB"
         id="stop27" />
      <stop
         offset="1"
         stop-color="white"
         id="stop28" />
    </radialGradient>
    <radialGradient
       id="paint1_radial_2419_1181"
       cx="0"
       cy="0"
       r="1"
       gradientUnits="userSpaceOnUse"
       gradientTransform="translate(670.507 207.626) rotate(-166.135) scale(566.385 711.821)">
      <stop
         stop-color="#DBDBDB"
         id="stop29" />
      <stop
         offset="1"
         stop-color="white"
         id="stop30" />
    </radialGradient>
    <radialGradient
       id="paint2_radial_2419_1181"
       cx="0"
       cy="0"
       r="1"
       gradientUnits="userSpaceOnUse"
       gradientTransform="translate(474.108 84.9045) rotate(-167.404) scale(252.917 290.776)">
      <stop
         stop-color="#DBDBDB"
         id="stop31" />
      <stop
         offset="1"
         stop-color="white"
         id="stop32" />
    </radialGradient>
    <radialGradient
       id="paint3_radial_2419_1181"
       cx="0"
       cy="0"
       r="1"
       gradientUnits="userSpaceOnUse"
       gradientTransform="translate(498.999 110.559) rotate(-167.42) scale(255.712 293.645)">
      <stop
         stop-color="#DBDBDB"
         id="stop33" />
      <stop
         offset="1"
         stop-color="white"
         id="stop34" />
    </radialGradient>
    <radialGradient
       id="paint4_radial_2419_1181"
       cx="0"
       cy="0"
       r="1"
       gradientUnits="userSpaceOnUse"
       gradientTransform="translate(523.902 136.213) rotate(-167.501) scale(259.845 296.589)">
      <stop
         stop-color="#DBDBDB"
         id="stop35" />
      <stop
         offset="1"
         stop-color="white"
         id="stop36" />
    </radialGradient>
    <radialGradient
       id="paint5_radial_2419_1181"
       cx="0"
       cy="0"
       r="1"
       gradientUnits="userSpaceOnUse"
       gradientTransform="translate(548.782 163.522) rotate(-167.45) scale(261.301 299.382)">
      <stop
         stop-color="#DBDBDB"
         id="stop37" />
      <stop
         offset="1"
         stop-color="white"
         id="stop38" />
    </radialGradient>
    <radialGradient
       id="paint6_radial_2419_1181"
       cx="0"
       cy="0"
       r="1"
       gradientUnits="userSpaceOnUse"
       gradientTransform="translate(578.669 192.479) rotate(-167.366) scale(267.007 307.835)">
      <stop
         stop-color="#DBDBDB"
         id="stop39" />
      <stop
         offset="1"
         stop-color="white"
         id="stop40" />
    </radialGradient>
    <radialGradient
       id="paint7_radial_2419_1181"
       cx="0"
       cy="0"
       r="1"
       gradientUnits="userSpaceOnUse"
       gradientTransform="translate(140.998 202.686) rotate(-159.129) scale(60.7132 109.176)">
      <stop
         stop-color="#DBDBDB"
         id="stop41" />
      <stop
         offset="1"
         stop-color="white"
         id="stop42" />
    </radialGradient>
    <radialGradient
       id="paint8_radial_2419_1181"
       cx="0"
       cy="0"
       r="1"
       gradientUnits="userSpaceOnUse"
       gradientTransform="translate(175.816 257.313) rotate(-159.129) scale(60.7132 109.176)">
      <stop
         stop-color="#DBDBDB"
         id="stop43" />
      <stop
         offset="1"
         stop-color="white"
         id="stop44" />
    </radialGradient>
    <radialGradient
       id="paint9_radial_2419_1181"
       cx="0"
       cy="0"
       r="1"
       gradientUnits="userSpaceOnUse"
       gradientTransform="translate(175.801 252.411) rotate(-166.689) scale(56.3654 68.2217)">
      <stop
         stop-color="#DBDBDB"
         id="stop45" />
      <stop
         offset="1"
         stop-color="white"
         id="stop46" />
    </radialGradient>
    <radialGradient
       id="paint10_radial_2419_1181"
       cx="0"
       cy="0"
       r="1"
       gradientUnits="userSpaceOnUse"
       gradientTransform="translate(86.6124 220.087) rotate(-150.374) scale(38.2858 88.8718)">
      <stop
         stop-color="#DBDBDB"
         id="stop47" />
      <stop
         offset="1"
         stop-color="white"
         id="stop48" />
    </radialGradient>
    <radialGradient
       id="paint11_radial_2419_1181"
       cx="0"
       cy="0"
       r="1"
       gradientUnits="userSpaceOnUse"
       gradientTransform="translate(65.2287 222.998) rotate(-131.527) scale(22.7522 61.0021)">
      <stop
         stop-color="#DBDBDB"
         id="stop49" />
      <stop
         offset="1"
         stop-color="white"
         id="stop50" />
    </radialGradient>
    <radialGradient
       id="paint12_radial_2419_1181"
       cx="0"
       cy="0"
       r="1"
       gradientUnits="userSpaceOnUse"
       gradientTransform="translate(106.508 258.16) rotate(-150.374) scale(38.2858 88.8718)">
      <stop
         stop-color="#DBDBDB"
         id="stop51" />
      <stop
         offset="1"
         stop-color="white"
         id="stop52" />
    </radialGradient>
    <radialGradient
       id="paint13_radial_2419_1181"
       cx="0"
       cy="0"
       r="1"
       gradientUnits="userSpaceOnUse"
       gradientTransform="translate(85.1243 261.072) rotate(-131.527) scale(22.7522 61.0021)">
      <stop
         stop-color="#DBDBDB"
         id="stop53" />
      <stop
         offset="1"
         stop-color="white"
         id="stop54" />
    </radialGradient>
    <radialGradient
       id="paint14_radial_2419_1181"
       cx="0"
       cy="0"
       r="1"
       gradientUnits="userSpaceOnUse"
       gradientTransform="translate(472.691 258.669) rotate(-167.454) scale(283.774 325.048)">
      <stop
         stop-color="#DBDBDB"
         id="stop55" />
      <stop
         offset="1"
         stop-color="white"
         id="stop56" />
    </radialGradient>
    <clipPath
       id="clip0_2419_1181">
      <rect
         width="667"
         height="544"
         fill="white"
         id="rect56" />
    </clipPath>
  </defs>
</svg>
