<?xml version="1.0" encoding="UTF-8" standalone="no"?>
<!-- Created with Inkscape (http://www.inkscape.org/) -->

<svg
   width="30.551441mm"
   height="5.2493367mm"
   viewBox="0 0 30.551441 5.2493367"
   version="1.1"
   id="svg1"
   xmlns="http://www.w3.org/2000/svg"
   xmlns:svg="http://www.w3.org/2000/svg">
  <defs
     id="defs1" />
  <g
     id="layer1"
     transform="translate(-25.833939,-16.978331)">
    <g
       id="text4"
       style="font-size:7.05556px;line-height:1.25;font-family:Courier;-inkscape-font-specification:Courier;letter-spacing:0px;word-spacing:0px;fill:#2b307b;stroke-width:0.264583"
       aria-label="LUCIDAC">
      <path
         style="font-weight:900;font-family:'Aquawax Fx';-inkscape-font-specification:'Aquawax Fx Heavy'"
         d="m 26.013855,22.157112 h 2.878669 c 0.102306,0 0.179917,-0.07761 0.179917,-0.179917 v -0.998361 c 0,-0.102306 -0.07761,-0.179917 -0.179917,-0.179917 h -1.326445 c -0.144639,0 -0.250473,-0.105834 -0.250473,-0.250473 v -3.319641 c 0,-0.102305 -0.07761,-0.179916 -0.179916,-0.179916 h -1.121835 c -0.102305,0 -0.179916,0.07761 -0.179916,0.179916 v 4.748392 c 0,0.102306 0.07761,0.179917 0.179916,0.179917 z m 4.93183,-2.053168 v -2.89278 c 0,-0.09172 -0.07056,-0.162277 -0.162278,-0.162277 h -1.157112 c -0.09172,0 -0.162277,0.07055 -0.162277,0.162277 v 2.89278 c 0,1.262945 0.889,2.123724 2.190751,2.123724 1.305279,0 2.197807,-0.860779 2.197807,-2.123724 v -2.89278 c 0,-0.09172 -0.07056,-0.162277 -0.162278,-0.162277 h -1.157112 c -0.09172,0 -0.162278,0.07055 -0.162278,0.162277 v 2.89278 c 0,0.381 -0.289278,0.642056 -0.716139,0.642056 -0.419806,0 -0.709084,-0.261056 -0.709084,-0.642056 z m 6.251222,2.123724 c 0.744362,0 1.485196,-0.373945 1.880307,-0.90664 0.04939,-0.0635 0.03881,-0.151694 -0.01764,-0.22225 l -0.278695,-0.34925 c -0.229305,-0.289278 -0.66675,-0.34925 -0.991306,-0.119945 -0.194028,0.137584 -0.402167,0.204612 -0.624417,0.204612 -0.680861,0 -1.139473,-0.515056 -1.139473,-1.227668 0,-0.712611 0.458612,-1.231195 1.139473,-1.231195 0.229306,0 0.426862,0.08467 0.624417,0.211667 0.292806,0.186972 0.758473,0.169333 0.991306,-0.127 l 0.278695,-0.352778 c 0.05644,-0.07056 0.0635,-0.165806 0.0071,-0.236362 -0.39864,-0.522111 -1.150057,-0.892528 -1.869724,-0.892528 -1.538112,0 -2.65289,1.104195 -2.65289,2.628196 0,1.520473 1.114778,2.621141 2.65289,2.621141 z m 4.074588,-0.215195 v -4.818947 c 0,-0.08114 -0.0635,-0.144639 -0.144639,-0.144639 h -1.19239 c -0.08114,0 -0.144639,0.0635 -0.144639,0.144639 v 4.818947 c 0,0.08114 0.0635,0.144639 0.144639,0.144639 h 1.19239 c 0.08114,0 0.144639,-0.0635 0.144639,-0.144639 z"
         id="path4" />
      <path
         style="font-family:'Aquawax Fx';-inkscape-font-specification:'Aquawax Fx'"
         d="m 42.597937,22.157112 h 1.770946 c 1.411112,0 2.518835,-1.104195 2.518835,-2.515307 0,-1.407584 -1.107723,-2.511779 -2.518835,-2.511779 h -1.770946 c -0.05292,0 -0.09878,0.04233 -0.09878,0.09878 v 4.829531 c 0,0.05292 0.04586,0.09878 0.09878,0.09878 z m 0.469195,-0.776111 v -3.478392 c 0,-0.141111 0.105833,-0.246944 0.246945,-0.246944 h 1.054806 c 1.093612,0 1.950862,0.874889 1.950862,1.98614 0,1.114778 -0.85725,1.98614 -1.950862,1.98614 h -1.054806 c -0.141112,0 -0.246945,-0.102306 -0.246945,-0.246944 z m 4.229811,0.776111 h 0.282222 c 0.130528,0 0.243417,-0.07408 0.296334,-0.215194 l 0.296333,-0.772584 c 0.04939,-0.123473 0.165806,-0.204612 0.328084,-0.204612 h 1.926168 c 0.165806,0 0.278694,0.08114 0.328083,0.204612 l 0.296334,0.772584 c 0.05292,0.141111 0.169333,0.215194 0.296333,0.215194 h 0.282223 c 0.05292,0 0.08467,-0.04586 0.06703,-0.09878 l -1.880307,-4.854225 c -0.01411,-0.04586 -0.05645,-0.07408 -0.102306,-0.07408 h -0.497417 c -0.04586,0 -0.09172,0.02822 -0.105833,0.07408 l -1.880307,4.854225 c -0.01764,0.05292 0.01411,0.09878 0.06703,0.09878 z m 1.270001,-2.014362 0.751417,-1.947335 c 0.05644,-0.148167 0.232833,-0.148167 0.28575,0 l 0.758473,1.947335 c 0.04939,0.137583 -0.03528,0.264583 -0.179917,0.264583 h -1.435806 c -0.144639,0 -0.232834,-0.127 -0.179917,-0.264583 z m 6.053663,2.077862 c 0.649112,0 1.294696,-0.271639 1.735668,-0.687917 0.03881,-0.03528 0.03881,-0.09172 0,-0.130528 l -0.06703,-0.05997 c -0.137583,-0.127 -0.335139,-0.194028 -0.490361,-0.08114 -0.335139,0.246945 -0.744362,0.391584 -1.174751,0.391584 -1.125362,0 -2.01789,-0.87489 -2.01789,-2.010835 0,-1.132417 0.892528,-2.007307 2.01789,-2.007307 0.426861,0 0.839612,0.144639 1.164167,0.381 0.155223,0.109362 0.345723,0.03175 0.483306,-0.09878 l 0.05997,-0.05644 c 0.03881,-0.03881 0.04233,-0.09878 -0.0035,-0.137583 -0.437445,-0.395112 -1.072445,-0.656167 -1.707446,-0.656167 -1.449917,0 -2.582335,1.132417 -2.582335,2.575279 0,1.449918 1.132418,2.578807 2.582335,2.578807 z"
         id="path5" />
    </g>
  </g>
</svg>
