<?xml version="1.0" encoding="UTF-8" standalone="no"?>
<!-- Created with Inkscape (http://www.inkscape.org/) -->

<svg
   width="25.231327mm"
   height="6.0483751mm"
   viewBox="0 0 25.231327 6.0483751"
   version="1.1"
   id="svg1"
   xmlns="http://www.w3.org/2000/svg"
   xmlns:svg="http://www.w3.org/2000/svg">
  <defs
     id="defs1" />
  <g
     id="layer1"
     transform="translate(-71.702083,-58.7375)">
    <g
       id="luci">
      <path
         class="cls-4"
         d="m 73.125542,59.052354 c 0.03175,0.03175 0.04498,0.06615 0.04498,0.111125 v 5.394854 c 0,0.04233 -0.01587,0.07937 -0.04498,0.111125 -0.0291,0.03175 -0.06615,0.04498 -0.111125,0.04498 h -1.156229 c -0.04233,0 -0.07937,-0.01588 -0.111125,-0.04498 -0.03175,-0.0291 -0.04498,-0.06615 -0.04498,-0.111125 v -5.394854 c 0,-0.04233 0.01587,-0.07937 0.04498,-0.111125 0.03175,-0.03175 0.06615,-0.04498 0.111125,-0.04498 h 1.156229 c 0.04233,0 0.07937,0.01587 0.111125,0.04498 z"
         id="path155"
         style="fill:#2b307b;stroke-width:0px" />
      <path
         class="cls-4"
         d="m 75.379792,60.764208 c 0.03175,0.03175 0.04498,0.06615 0.04498,0.111125 v 2.082271 c 0,0.153458 0.0344,0.261937 0.103187,0.330729 0.06879,0.06615 0.15875,0.100542 0.269875,0.100542 0.05821,0 0.119063,-0.01058 0.179917,-0.03175 0.0635,-0.02117 0.124354,-0.05027 0.185208,-0.08731 0.06615,-0.03969 0.113771,-0.0979 0.145521,-0.166687 0.03175,-0.07144 0.04498,-0.148167 0.04498,-0.232834 v -1.994958 c 0,-0.04233 0.01587,-0.07937 0.04498,-0.111125 0.03175,-0.03175 0.06615,-0.04498 0.111125,-0.04498 h 1.15623 c 0.04233,0 0.07937,0.01588 0.111125,0.04498 0.03175,0.03175 0.04498,0.06615 0.04498,0.111125 v 3.683 c 0,0.04233 -0.01587,0.07937 -0.04498,0.111125 -0.03175,0.03175 -0.06615,0.04498 -0.111125,0.04498 h -0.67998 c -0.116416,0 -0.216958,-0.01588 -0.30427,-0.04498 -0.08731,-0.0291 -0.150813,-0.07673 -0.195792,-0.140229 l -0.01058,-0.01587 c -0.02911,-0.03704 -0.05821,-0.06615 -0.08731,-0.07938 -0.0291,-0.01323 -0.0635,-0.01852 -0.100542,-0.0079 -0.03704,0.01058 -0.07937,0.03175 -0.127,0.06879 -0.129645,0.0926 -0.269875,0.164042 -0.420687,0.214312 -0.150813,0.05292 -0.314854,0.07673 -0.489479,0.07673 -0.254,0 -0.478896,-0.05556 -0.672042,-0.166688 -0.193146,-0.111125 -0.343958,-0.291042 -0.455083,-0.53975 -0.111125,-0.248708 -0.166688,-0.566208 -0.166688,-0.955146 v -2.248958 c 0,-0.04233 0.01587,-0.07937 0.04498,-0.111125 0.0291,-0.03175 0.06615,-0.04498 0.111124,-0.04498 h 1.15623 c 0.04233,0 0.07938,0.01588 0.111125,0.04498 z"
         id="path156"
         style="fill:#2b307b;stroke-width:0px" />
      <path
         class="cls-4"
         d="m 79.494062,64.523937 c -0.320145,-0.177271 -0.568854,-0.423333 -0.74877,-0.740833 -0.179917,-0.3175 -0.269875,-0.669396 -0.269875,-1.063625 0,-0.394229 0.08996,-0.748771 0.269875,-1.060979 0.179916,-0.312209 0.43127,-0.560917 0.74877,-0.738188 0.3175,-0.177271 0.677334,-0.267229 1.076855,-0.267229 0.277812,0 0.534458,0.05556 0.775229,0.166687 0.240771,0.111125 0.460375,0.264584 0.658812,0.45773 0.03175,0.03175 0.04762,0.06614 0.05027,0.105833 0.0026,0.03969 -0.0053,0.07673 -0.02381,0.111125 l -0.248709,0.423333 c -0.06085,0.105834 -0.142875,0.1905 -0.243416,0.248709 -0.100542,0.05821 -0.209021,0.08996 -0.325438,0.0926 -0.116417,0 -0.224896,-0.02646 -0.325437,-0.08467 -0.06615,-0.03704 -0.121709,-0.0635 -0.166688,-0.07408 -0.04498,-0.01058 -0.0979,-0.01852 -0.15875,-0.02117 -0.119062,-0.0053 -0.227542,0.01852 -0.322792,0.07408 -0.09525,0.05556 -0.169333,0.132292 -0.22225,0.230188 -0.05292,0.0979 -0.07937,0.209021 -0.07937,0.330729 0,0.121708 0.02646,0.232833 0.07937,0.330729 0.05292,0.0979 0.127,0.174625 0.22225,0.230188 0.09525,0.05556 0.20373,0.08202 0.322792,0.08202 0.05821,0 0.111125,-0.0053 0.156104,-0.01852 0.04498,-0.01323 0.100542,-0.03704 0.166688,-0.07673 0.09525,-0.05556 0.201083,-0.08467 0.314854,-0.08731 0.113771,0 0.219604,0.02117 0.320146,0.07144 0.100541,0.05027 0.182562,0.121708 0.246062,0.214312 l 0.291042,0.423333 c 0.02381,0.03175 0.0344,0.06879 0.0344,0.105834 0,0.03704 -0.01323,0.07144 -0.03704,0.103187 -0.185208,0.22225 -0.407458,0.391584 -0.661458,0.513292 -0.256646,0.121708 -0.531813,0.179917 -0.8255,0.179917 -0.399521,0 -0.759354,-0.08996 -1.076854,-0.26723 z"
         id="path157"
         style="fill:#2b307b;stroke-width:0px" />
      <path
         class="cls-4"
         d="m 82.690229,59.160833 c 0.07673,-0.129646 0.179917,-0.232833 0.309563,-0.309562 0.132291,-0.07673 0.27252,-0.113771 0.425979,-0.113771 0.153458,0 0.293687,0.03704 0.423333,0.113771 0.129646,0.07673 0.232833,0.179916 0.309563,0.309562 0.07673,0.129646 0.11377,0.269875 0.11377,0.423333 0,0.153459 -0.03704,0.293688 -0.11377,0.425979 -0.07673,0.132292 -0.179917,0.23548 -0.309563,0.309563 -0.129646,0.07673 -0.269875,0.113771 -0.423333,0.113771 -0.153459,0 -0.293688,-0.03704 -0.425979,-0.113771 -0.129646,-0.07673 -0.23548,-0.179917 -0.309563,-0.309563 -0.07673,-0.129645 -0.113771,-0.27252 -0.113771,-0.425979 0,-0.153458 0.03704,-0.293687 0.113771,-0.423333 z m 1.423458,1.603375 c 0.03175,0.03175 0.04498,0.06615 0.04498,0.111125 v 3.683 c 0,0.04233 -0.01587,0.07937 -0.04498,0.111125 -0.0291,0.03175 -0.06614,0.04498 -0.111125,0.04498 h -1.156229 c -0.04233,0 -0.07937,-0.01588 -0.111125,-0.04498 -0.03175,-0.0291 -0.04498,-0.06615 -0.04498,-0.111125 v -3.683 c 0,-0.04233 0.01587,-0.07937 0.04498,-0.111125 0.0291,-0.03175 0.06615,-0.04498 0.111125,-0.04498 h 1.156229 c 0.04233,0 0.07937,0.01588 0.111125,0.04498 z"
         id="path158"
         style="fill:#2b307b;stroke-width:0px" />
    </g>
    <g
       id="dac">
      <path
         class="cls-4"
         d="m 88.460791,59.110562 c 0.01852,0.01852 0.02646,0.03969 0.02646,0.06615 v 5.453062 c 0,0.02646 -0.0079,0.04498 -0.02381,0.0635 -0.01587,0.01588 -0.0344,0.02381 -0.06085,0.02381 h -0.206375 c -0.04498,0 -0.08202,-0.01058 -0.105833,-0.0344 -0.02381,-0.02381 -0.03969,-0.05821 -0.04762,-0.103187 v -0.129646 c -0.0053,-0.03704 -0.01852,-0.06615 -0.03969,-0.08731 -0.02117,-0.02117 -0.04498,-0.0291 -0.07144,-0.0291 -0.02646,0 -0.05292,0.01323 -0.08202,0.03704 -0.150813,0.129646 -0.3175,0.230187 -0.502708,0.304271 -0.185209,0.07144 -0.388938,0.108479 -0.613834,0.108479 -0.34925,0 -0.658812,-0.08467 -0.933979,-0.254 -0.275166,-0.169334 -0.489479,-0.404813 -0.645583,-0.706438 -0.156104,-0.301625 -0.235479,-0.642937 -0.235479,-1.023937 0,-0.381 0.08202,-0.719667 0.248708,-1.021292 0.166688,-0.301625 0.396875,-0.537104 0.693208,-0.706437 0.293688,-0.169334 0.624417,-0.254 0.992188,-0.254 0.182562,0 0.357187,0.0291 0.518583,0.08467 0.161396,0.05821 0.309563,0.134938 0.441854,0.235479 0.05027,0.03704 0.100542,0.04498 0.150813,0.02381 0.05027,-0.02381 0.07408,-0.06615 0.07408,-0.129646 v -1.852083 c 0,-0.02646 0.0079,-0.04762 0.02646,-0.06615 0.01852,-0.01852 0.03969,-0.02646 0.06615,-0.02646 h 0.269875 c 0.02381,0 0.04233,0.0079 0.06085,0.02646 z m -2.90777,4.47675 c 0.124354,0.230188 0.296333,0.41275 0.515937,0.542396 0.219604,0.132292 0.465667,0.195792 0.740834,0.195792 0.20902,0 0.394229,-0.03704 0.55827,-0.113771 0.164042,-0.07673 0.314854,-0.182563 0.455084,-0.3175 0.07673,-0.07408 0.129645,-0.156104 0.164041,-0.246063 0.03175,-0.08996 0.05027,-0.195791 0.05027,-0.314854 v -1.164167 c 0,-0.111125 -0.01587,-0.214312 -0.05027,-0.30427 -0.03175,-0.0926 -0.08731,-0.169334 -0.161396,-0.23548 -0.127,-0.108479 -0.275166,-0.198437 -0.439208,-0.264583 -0.166687,-0.06615 -0.343958,-0.100542 -0.534458,-0.100542 -0.280458,0 -0.531813,0.06615 -0.759354,0.198438 -0.227542,0.132292 -0.404813,0.314854 -0.531813,0.547687 -0.127,0.232834 -0.193146,0.494771 -0.193146,0.788459 0,0.293687 0.0635,0.558271 0.187855,0.788458 z"
         id="path159"
         style="fill:#2b307b;stroke-width:0px" />
      <path
         class="cls-4"
         d="m 90.040354,64.640354 c -0.187854,-0.09525 -0.330729,-0.230188 -0.428625,-0.404813 -0.0979,-0.174625 -0.148167,-0.378354 -0.148167,-0.611187 0,-0.261938 0.0635,-0.478896 0.193146,-0.648229 0.129646,-0.169334 0.304271,-0.296334 0.529167,-0.375709 0.224896,-0.07938 0.486833,-0.119062 0.783166,-0.119062 0.254,0 0.52123,0.01852 0.801688,0.05821 0.03969,0.0079 0.07937,0.01323 0.119062,0.01852 0.103188,0.02117 0.182563,0.01323 0.232834,-0.02117 0.05027,-0.0344 0.07673,-0.105833 0.07673,-0.214312 0,-0.235479 -0.03704,-0.433917 -0.108479,-0.590021 -0.07144,-0.156104 -0.185209,-0.275167 -0.338667,-0.354542 -0.153458,-0.07938 -0.34925,-0.119062 -0.590021,-0.119062 -0.185208,0 -0.357187,0.02117 -0.510646,0.0635 -0.156104,0.04233 -0.312208,0.111125 -0.473604,0.201083 -0.07144,0.0344 -0.142875,0.04763 -0.216958,0.0344 -0.07408,-0.01323 -0.129646,-0.05027 -0.164042,-0.113771 l -0.0344,-0.06615 c -0.01323,-0.02646 -0.01587,-0.05027 -0.01323,-0.07144 0.0026,-0.02381 0.01587,-0.04233 0.03969,-0.05821 0.187854,-0.14552 0.402166,-0.254 0.645583,-0.328083 0.243417,-0.07408 0.492125,-0.111125 0.746125,-0.111125 0.492125,0 0.859896,0.129646 1.103313,0.388938 0.243416,0.259291 0.365125,0.65352 0.365125,1.185333 v 2.246312 c 0,0.02911 -0.0079,0.05027 -0.02117,0.06615 -0.01323,0.01588 -0.0344,0.02381 -0.0635,0.02381 h -0.127 c -0.06085,0 -0.111125,-0.01323 -0.145521,-0.03969 -0.03704,-0.02646 -0.06085,-0.06879 -0.07408,-0.127 v -0.15875 c -0.01058,-0.03704 -0.0291,-0.06615 -0.05292,-0.08467 -0.02646,-0.01852 -0.05821,-0.02381 -0.09525,-0.01852 -0.03704,0.0053 -0.07673,0.02381 -0.113771,0.05292 -0.179916,0.142875 -0.375708,0.251355 -0.584729,0.328084 -0.209021,0.07673 -0.431271,0.113771 -0.66675,0.113771 -0.254,0 -0.473604,-0.04763 -0.661458,-0.142875 z m -0.03175,-0.635 c 0.0635,0.111125 0.15875,0.195791 0.283104,0.254 0.127,0.06085 0.277813,0.08996 0.455083,0.08996 0.227542,0 0.449792,-0.03969 0.664105,-0.119062 0.214312,-0.07937 0.404812,-0.195792 0.568854,-0.34925 0.07937,-0.0635 0.134937,-0.129646 0.166687,-0.195792 0.03175,-0.06615 0.04762,-0.140229 0.04762,-0.214313 V 63.246 c 0,-0.08202 -0.02117,-0.148167 -0.06615,-0.201084 -0.04498,-0.05292 -0.116416,-0.08996 -0.214312,-0.105833 -0.119063,-0.02117 -0.259292,-0.03704 -0.418042,-0.05027 -0.15875,-0.01323 -0.314854,-0.02117 -0.470958,-0.02117 -0.34925,0 -0.621771,0.06085 -0.817563,0.185209 -0.195791,0.124354 -0.296333,0.312208 -0.296333,0.5715 0,0.148166 0.03175,0.275166 0.09525,0.386291 z"
         id="path160"
         style="fill:#2b307b;stroke-width:0px" />
      <path
         class="cls-4"
         d="m 94.609708,64.521291 c -0.301625,-0.171979 -0.53975,-0.410104 -0.714375,-0.711729 -0.174625,-0.301625 -0.261937,-0.640292 -0.261937,-1.013354 0,-0.373063 0.08731,-0.711729 0.261937,-1.013354 0.174625,-0.301625 0.41275,-0.537104 0.714375,-0.711729 0.301625,-0.17198 0.642938,-0.259292 1.018646,-0.259292 0.224896,0 0.452437,0.03969 0.682625,0.119062 0.230187,0.07937 0.428625,0.1905 0.590021,0.336021 0.01588,0.01323 0.02381,0.0291 0.02381,0.04762 0,0.01852 -0.0053,0.03704 -0.01588,0.05556 l -0.06615,0.09525 c -0.02381,0.03704 -0.05292,0.06615 -0.0926,0.08202 -0.03969,0.01587 -0.08202,0.02381 -0.127,0.02117 -0.04498,0 -0.08996,-0.01588 -0.134937,-0.04233 -0.132292,-0.08467 -0.272521,-0.148167 -0.420688,-0.195792 -0.148166,-0.04762 -0.293687,-0.07144 -0.441854,-0.07144 -0.291042,0 -0.552979,0.06615 -0.788458,0.201083 -0.235479,0.134938 -0.420688,0.320146 -0.555625,0.555625 -0.134938,0.235479 -0.201084,0.494771 -0.201084,0.780521 0,0.28575 0.06615,0.547687 0.201084,0.783167 0.134937,0.235479 0.320146,0.418041 0.555625,0.552979 0.235479,0.132291 0.497416,0.201083 0.788458,0.201083 0.145521,0 0.293688,-0.02381 0.4445,-0.06879 0.150813,-0.04498 0.293688,-0.11377 0.425979,-0.201083 0.04233,-0.0291 0.08731,-0.04498 0.132292,-0.04763 0.04498,-0.0026 0.08731,0.0026 0.127,0.02381 0.03969,0.02117 0.07408,0.04498 0.100542,0.08202 l 0.06085,0.09525 c 0.01323,0.01587 0.01852,0.03175 0.01587,0.05027 0,0.01852 -0.01058,0.03704 -0.02646,0.05556 -0.166687,0.145521 -0.365125,0.259291 -0.592666,0.338666 -0.227542,0.08202 -0.457729,0.121709 -0.687917,0.121709 -0.375708,0 -0.717021,-0.08731 -1.018646,-0.259292 z"
         id="path161"
         style="fill:#2b307b;stroke-width:0px" />
    </g>
  </g>
</svg>
